<svg id="svg" version="1.1" xmlns="http://www.w3.org/2000/svg" xmlns:xlink="http://www.w3.org/1999/xlink" width="400" height="400" viewBox="0, 0, 400,400"><g id="svgg"><path id="path0" d="M297.694 164.066 C 296.817 164.943,296.992 257.937,297.874 259.786 L 298.548 261.200 301.631 261.200 L 304.713 261.200 305.357 259.592 C 306.040 257.885,306.336 169.160,305.671 165.400 L 305.388 163.800 301.788 163.686 C 299.330 163.609,298.031 163.729,297.694 164.066 M180.000 169.252 C 176.404 169.543,175.426 169.785,173.200 170.931 C 171.770 171.668,169.750 172.502,168.711 172.784 C 167.568 173.095,166.734 173.577,166.598 174.006 C 166.475 174.395,165.828 174.940,165.162 175.216 C 164.496 175.491,163.491 176.321,162.928 177.059 C 162.365 177.796,161.701 178.399,161.453 178.397 C 160.888 178.393,156.801 182.835,156.800 183.453 C 156.800 183.701,156.285 184.421,155.655 185.053 C 155.025 185.684,154.191 187.055,153.801 188.100 C 153.411 189.144,152.660 190.431,152.133 190.958 C 151.406 191.685,151.028 192.771,150.569 195.458 C 150.235 197.416,149.628 199.466,149.213 200.042 C 146.960 203.168,146.933 228.208,149.179 231.064 C 149.667 231.685,150.124 233.339,150.458 235.702 C 150.872 238.624,151.191 239.622,152.020 240.587 C 152.593 241.254,153.377 242.610,153.762 243.600 C 154.147 244.590,154.877 245.850,155.385 246.400 C 155.893 246.950,156.609 247.995,156.976 248.723 C 157.841 250.436,162.577 255.052,164.474 256.030 C 165.284 256.447,166.184 257.117,166.474 257.517 C 166.782 257.943,167.994 258.452,169.400 258.746 C 172.240 259.339,173.975 259.945,174.800 260.631 C 177.150 262.586,197.399 262.417,201.510 260.408 C 202.450 259.948,204.340 259.346,205.710 259.069 L 208.200 258.566 208.315 254.634 L 208.430 250.702 206.115 250.881 C 204.842 250.980,202.944 251.457,201.899 251.941 C 196.933 254.240,180.769 254.356,177.636 252.114 C 177.066 251.707,175.563 251.055,174.295 250.665 C 172.845 250.219,171.761 249.607,171.374 249.016 C 171.035 248.499,170.320 247.966,169.784 247.832 C 169.248 247.697,168.496 247.095,168.112 246.494 C 167.728 245.892,166.916 244.923,166.307 244.340 C 165.698 243.756,165.200 243.058,165.200 242.788 C 165.200 242.518,164.580 241.610,163.822 240.771 C 163.058 239.927,162.254 238.476,162.019 237.523 C 161.786 236.575,161.329 235.350,161.004 234.800 C 158.732 230.951,158.202 226.022,158.527 211.800 C 158.764 201.443,159.029 199.566,160.590 197.200 C 161.098 196.430,161.731 194.854,161.997 193.697 C 162.295 192.401,162.830 191.320,163.391 190.879 C 163.891 190.485,164.670 189.451,165.122 188.582 C 165.879 187.123,168.005 184.761,170.629 182.465 C 171.217 181.951,172.441 181.209,173.349 180.817 C 174.257 180.425,175.330 179.735,175.733 179.284 C 178.283 176.432,197.682 176.590,202.078 179.499 C 203.795 180.635,207.680 181.242,208.169 180.450 C 208.319 180.208,208.711 178.975,209.040 177.710 C 209.370 176.445,210.011 175.014,210.466 174.530 L 211.293 173.650 209.798 173.025 C 208.975 172.681,208.203 172.400,208.081 172.400 C 207.959 172.400,206.586 171.775,205.030 171.012 C 200.987 169.028,191.224 168.342,180.000 169.252 M41.280 170.080 C 40.443 170.917,40.602 256.645,41.446 259.225 L 42.092 261.200 45.399 261.200 L 48.705 261.200 49.153 259.423 C 49.464 258.185,49.612 246.815,49.640 221.923 C 49.681 185.507,49.711 184.596,50.902 183.845 C 52.035 183.129,52.840 184.417,53.654 188.247 C 54.104 190.364,54.800 192.334,55.408 193.212 C 55.994 194.057,56.603 195.742,56.862 197.233 C 57.106 198.645,57.816 200.816,58.438 202.058 C 59.060 203.300,59.750 205.442,59.972 206.820 C 60.209 208.289,60.806 209.974,61.417 210.897 C 61.989 211.762,62.713 213.696,63.026 215.194 C 63.710 218.479,63.933 219.106,64.871 220.400 C 65.270 220.950,65.932 222.930,66.343 224.800 C 66.755 226.670,67.480 228.853,67.956 229.651 C 68.432 230.449,69.070 232.408,69.374 234.004 C 69.678 235.599,70.292 237.398,70.737 238.001 C 71.541 239.088,72.510 242.055,72.978 244.859 C 73.112 245.662,73.542 246.742,73.935 247.259 C 74.714 248.286,75.379 250.396,75.808 253.200 C 75.960 254.190,76.686 255.917,77.422 257.038 C 78.159 258.160,78.979 259.555,79.245 260.138 C 79.706 261.151,79.867 261.200,82.765 261.200 L 85.801 261.200 86.766 259.300 C 87.296 258.255,88.134 256.770,88.627 256.000 C 89.120 255.230,89.822 253.250,90.186 251.600 C 90.550 249.950,91.222 247.970,91.678 247.200 C 92.135 246.430,92.844 244.282,93.253 242.427 C 93.682 240.482,94.328 238.702,94.780 238.221 C 95.228 237.744,95.921 235.849,96.399 233.794 C 96.859 231.817,97.667 229.570,98.195 228.800 C 98.758 227.979,99.353 226.242,99.635 224.600 C 99.907 223.012,100.526 221.180,101.065 220.368 C 101.587 219.580,102.291 217.600,102.629 215.968 C 102.967 214.336,103.676 212.370,104.206 211.600 C 104.736 210.830,105.446 208.883,105.785 207.274 C 106.403 204.335,106.871 203.113,107.807 202.000 C 108.085 201.670,108.528 200.097,108.791 198.503 C 109.084 196.734,109.651 195.047,110.247 194.168 C 110.784 193.377,111.577 191.216,112.008 189.365 C 112.974 185.223,113.454 184.400,114.906 184.400 C 116.715 184.400,116.722 184.551,116.528 221.612 C 116.426 241.075,116.495 257.810,116.681 258.800 L 117.019 260.600 120.194 260.957 L 123.368 261.314 124.884 259.605 L 126.400 257.897 126.400 214.197 L 126.400 170.497 125.293 170.038 C 124.569 169.739,121.838 169.618,117.407 169.690 L 110.629 169.800 109.981 172.654 C 109.625 174.223,108.936 176.181,108.451 177.004 C 107.965 177.827,107.305 179.749,106.984 181.276 C 106.387 184.113,105.911 185.324,104.960 186.419 C 104.665 186.759,104.151 188.332,103.818 189.914 C 103.485 191.496,102.694 193.763,102.060 194.951 C 101.426 196.139,100.681 198.346,100.404 199.856 C 100.127 201.365,99.571 202.963,99.168 203.406 C 98.766 203.850,98.065 205.807,97.610 207.756 C 97.156 209.704,96.414 211.819,95.961 212.454 C 95.509 213.090,94.788 215.093,94.359 216.905 C 93.931 218.717,93.199 220.722,92.734 221.360 C 92.252 222.020,91.665 223.803,91.370 225.500 C 91.051 227.341,90.458 229.077,89.821 230.040 C 89.253 230.898,88.516 232.897,88.182 234.483 C 87.849 236.070,87.230 237.915,86.807 238.584 C 86.385 239.253,85.645 240.662,85.163 241.716 C 83.493 245.370,81.749 244.986,80.645 240.721 C 80.320 239.467,79.687 237.937,79.238 237.321 C 78.790 236.704,78.063 234.641,77.623 232.735 C 77.181 230.818,76.372 228.605,75.812 227.779 C 75.255 226.959,74.798 225.818,74.795 225.244 C 74.787 223.536,73.759 220.185,72.865 218.951 C 72.406 218.318,71.764 216.501,71.439 214.912 C 71.114 213.324,70.365 211.199,69.774 210.191 C 69.182 209.182,68.461 207.110,68.171 205.587 C 67.881 204.063,67.193 202.047,66.642 201.108 C 66.092 200.169,65.526 198.590,65.385 197.600 C 65.001 194.906,64.389 193.096,63.550 192.173 C 63.136 191.718,62.470 189.829,62.070 187.973 C 61.646 186.006,60.922 183.990,60.334 183.137 C 59.675 182.181,59.146 180.586,58.807 178.537 C 58.488 176.614,57.993 175.074,57.527 174.557 C 57.109 174.093,56.575 173.013,56.342 172.157 C 56.108 171.300,55.733 170.375,55.509 170.100 C 54.944 169.406,41.972 169.388,41.280 170.080 M243.496 192.156 C 242.669 192.460,241.744 192.914,241.441 193.166 C 241.138 193.417,239.745 193.869,238.345 194.170 C 232.181 195.494,230.521 197.883,232.569 202.483 C 233.051 203.566,238.138 202.544,240.565 200.876 L 242.131 199.800 250.043 199.800 L 257.954 199.800 259.277 201.028 C 260.005 201.703,261.081 202.553,261.668 202.916 C 262.425 203.384,262.929 204.238,263.396 205.844 C 263.758 207.092,264.343 208.552,264.695 209.089 C 265.609 210.484,266.071 216.663,265.365 218.050 C 264.615 219.526,262.401 220.284,257.347 220.798 C 241.266 222.434,237.350 223.005,236.363 223.859 C 236.012 224.162,234.657 224.829,233.351 225.341 C 230.224 226.566,226.437 230.214,225.387 233.013 C 224.977 234.106,224.272 235.510,223.820 236.134 C 222.586 237.841,222.585 247.760,223.820 249.467 C 224.271 250.090,224.934 251.528,225.293 252.663 C 226.084 255.159,228.833 258.088,231.069 258.816 C 231.911 259.090,233.370 259.862,234.312 260.533 C 237.492 262.799,249.539 262.575,253.061 260.185 C 253.903 259.613,255.379 258.935,256.342 258.678 C 257.538 258.358,258.201 257.923,258.436 257.305 C 258.625 256.807,259.343 256.058,260.030 255.640 C 260.718 255.222,261.610 254.338,262.012 253.676 C 263.666 250.957,266.147 252.092,266.739 255.838 C 267.159 258.498,269.808 261.174,272.036 261.190 C 274.638 261.208,274.586 261.683,274.716 236.600 C 274.848 211.114,274.590 205.919,273.084 203.675 C 272.539 202.864,271.774 201.335,271.384 200.278 C 270.900 198.966,270.308 198.166,269.520 197.759 C 268.885 197.430,268.167 196.726,267.924 196.194 C 267.602 195.487,266.773 194.995,264.842 194.364 C 263.389 193.889,261.570 193.118,260.800 192.650 C 259.005 191.560,246.119 191.192,243.496 192.156 M345.600 192.761 C 344.170 193.417,341.965 194.240,340.700 194.588 C 339.435 194.937,338.400 195.395,338.400 195.606 C 338.400 195.817,337.635 196.472,336.700 197.061 C 334.778 198.273,331.735 201.345,331.395 202.417 C 331.270 202.808,330.746 203.406,330.229 203.744 C 329.612 204.149,329.123 205.054,328.804 206.385 C 328.537 207.498,327.897 209.030,327.382 209.788 C 324.604 213.883,324.283 239.642,326.961 243.566 C 327.500 244.354,328.237 246.036,328.599 247.301 C 328.964 248.577,329.575 249.772,329.969 249.983 C 330.361 250.193,331.269 251.317,331.987 252.482 C 333.614 255.120,337.749 258.227,340.949 259.217 C 342.222 259.611,343.576 260.216,343.959 260.563 C 346.124 262.522,362.905 262.551,365.200 260.600 C 365.530 260.319,366.745 259.601,367.900 259.003 C 369.923 257.956,370.000 257.855,369.996 256.258 C 369.983 251.397,368.742 250.178,365.824 252.158 C 363.186 253.948,349.855 254.593,346.800 253.079 C 341.961 250.682,338.137 246.540,337.017 242.486 C 336.670 241.229,336.027 239.426,335.589 238.480 C 333.543 234.068,333.456 219.751,335.453 215.902 C 335.824 215.186,336.441 213.384,336.825 211.898 C 337.252 210.240,337.962 208.688,338.661 207.885 C 339.287 207.165,340.250 205.903,340.800 205.082 C 341.402 204.182,342.516 203.261,343.600 202.766 C 345.613 201.846,345.818 201.730,347.427 200.600 C 349.391 199.220,360.414 199.463,362.938 200.942 C 365.067 202.190,367.540 202.513,367.970 201.600 C 368.126 201.270,368.914 199.704,369.722 198.121 C 370.531 196.538,371.059 195.168,370.896 195.077 C 370.733 194.986,369.268 194.513,367.641 194.026 C 366.014 193.539,364.222 192.839,363.659 192.471 C 362.817 191.918,361.362 191.779,355.418 191.684 L 348.200 191.567 345.600 192.761 M265.070 228.562 C 266.423 230.137,266.130 236.891,264.562 240.275 C 264.033 241.417,263.599 242.497,263.598 242.675 C 263.588 244.062,262.500 246.266,261.180 247.573 C 260.311 248.433,259.600 249.310,259.600 249.520 C 259.600 249.731,259.037 250.136,258.348 250.422 C 257.659 250.707,256.548 251.440,255.879 252.052 C 253.852 253.903,247.218 254.826,241.830 254.006 C 234.634 252.911,231.602 246.688,233.639 237.192 C 234.161 234.756,236.734 231.840,239.600 230.435 C 240.590 229.950,242.094 229.179,242.943 228.723 C 244.806 227.721,249.900 227.265,258.336 227.345 L 264.071 227.400 265.070 228.562 " stroke="none" fill="#f0f0f0" fill-rule="evenodd"></path><path id="path1" d="M0.000 200.000 L 0.000 400.000 200.000 400.000 L 400.000 400.000 400.000 200.000 L 400.000 0.000 200.000 0.000 L 0.000 0.000 0.000 200.000 M307.087 162.514 C 307.819 163.248,308.472 253.731,307.786 259.533 C 307.388 262.900,306.870 263.200,301.459 263.200 C 295.946 263.200,294.410 262.504,293.928 259.787 C 293.773 258.914,293.636 237.036,293.623 211.170 L 293.600 164.139 294.548 163.249 C 296.459 161.454,305.499 160.924,307.087 162.514 M196.464 166.549 C 197.808 167.129,200.312 167.601,205.317 168.218 C 206.626 168.379,207.647 168.817,208.539 169.600 C 209.256 170.230,210.315 170.864,210.892 171.009 C 213.537 171.673,214.077 175.623,211.842 177.956 C 211.252 178.572,210.588 179.735,210.365 180.541 C 209.686 183.002,208.865 183.267,204.199 182.533 C 200.603 181.968,199.137 181.443,196.246 179.686 C 194.420 178.577,180.781 179.207,179.281 180.470 C 178.581 181.059,176.996 181.835,175.758 182.195 C 174.279 182.625,173.167 183.253,172.518 184.025 C 171.974 184.671,171.269 185.200,170.951 185.200 C 170.633 185.200,169.993 185.844,169.528 186.632 C 169.063 187.420,168.259 188.225,167.742 188.422 C 167.110 188.662,166.800 189.100,166.800 189.750 C 166.800 190.283,166.080 191.678,165.200 192.849 C 164.320 194.020,163.600 195.199,163.600 195.470 C 163.600 197.041,162.591 200.188,161.669 201.490 L 160.600 203.000 160.600 215.400 C 160.600 227.696,160.608 227.810,161.515 229.018 C 162.432 230.240,163.586 233.828,163.595 235.486 C 163.598 235.973,164.114 236.963,164.741 237.686 C 166.134 239.289,166.799 240.512,166.803 241.474 C 166.804 241.873,167.346 242.508,168.006 242.883 C 168.667 243.259,169.382 244.028,169.596 244.591 C 169.811 245.154,170.484 245.802,171.093 246.032 C 171.702 246.261,172.740 246.957,173.400 247.577 C 174.706 248.804,176.302 249.394,179.400 249.793 C 180.500 249.934,182.352 250.399,183.515 250.825 C 186.307 251.848,190.845 251.857,193.913 250.846 C 195.171 250.431,198.986 249.786,202.392 249.412 L 208.583 248.733 209.492 249.789 C 211.477 252.097,210.628 259.611,208.271 260.596 C 207.537 260.903,206.706 261.431,206.425 261.770 C 205.505 262.879,203.131 263.222,193.859 263.588 C 179.906 264.139,172.271 263.503,170.200 261.619 C 169.760 261.218,168.372 260.597,167.116 260.239 C 165.860 259.880,164.690 259.343,164.516 259.046 C 164.342 258.748,163.398 258.098,162.418 257.602 C 160.421 256.591,156.444 252.800,155.479 250.988 C 155.131 250.334,154.387 249.278,153.826 248.641 C 153.264 248.003,152.629 246.844,152.414 246.065 C 152.199 245.285,151.560 244.277,150.996 243.824 C 150.172 243.163,149.841 242.326,149.322 239.600 C 148.964 237.717,148.359 235.843,147.965 235.400 C 146.634 233.904,146.335 232.206,145.959 224.000 C 145.751 219.490,145.504 215.581,145.409 215.313 C 145.110 214.474,146.339 199.413,146.807 198.177 C 147.053 197.529,147.573 196.640,147.964 196.200 C 148.355 195.760,148.998 193.818,149.392 191.885 C 149.924 189.274,150.326 188.220,150.954 187.787 C 151.419 187.466,152.074 186.438,152.408 185.502 C 152.763 184.510,153.389 183.635,153.909 183.405 C 154.399 183.188,154.999 182.409,155.241 181.674 C 155.842 179.854,161.243 174.622,163.241 173.926 C 163.818 173.725,164.483 173.137,164.718 172.620 C 164.974 172.058,165.762 171.483,166.673 171.191 C 167.513 170.922,168.562 170.372,169.005 169.970 C 170.236 168.852,172.333 168.129,175.200 167.834 C 176.630 167.687,178.880 167.226,180.200 166.809 C 181.520 166.392,182.960 165.958,183.400 165.845 C 185.182 165.387,194.996 165.916,196.464 166.549 M55.597 167.859 C 57.568 168.254,59.765 171.865,60.323 175.630 C 60.599 177.489,61.029 178.793,61.548 179.347 C 62.597 180.467,62.998 181.599,63.586 185.100 C 63.853 186.695,64.232 188.000,64.428 188.000 C 65.161 188.000,66.442 191.325,66.676 193.837 C 66.864 195.844,67.171 196.757,68.019 197.824 C 69.001 199.059,70.000 202.614,70.000 204.871 C 70.000 205.204,70.354 205.796,70.786 206.187 C 71.752 207.062,72.668 209.543,73.005 212.200 C 73.146 213.307,73.697 214.841,74.239 215.636 C 74.850 216.529,75.455 218.342,75.844 220.436 C 76.302 222.904,76.716 224.035,77.398 224.683 C 78.348 225.585,78.442 225.879,79.220 230.386 C 79.510 232.068,79.923 233.151,80.402 233.487 C 81.240 234.074,81.743 235.475,82.452 239.200 C 82.943 241.783,82.948 241.791,83.298 240.400 C 83.491 239.630,83.823 238.333,84.035 237.518 C 84.247 236.703,84.858 235.517,85.393 234.882 C 86.053 234.096,86.505 232.843,86.805 230.963 C 87.096 229.143,87.653 227.567,88.437 226.343 C 89.397 224.847,90.380 221.444,90.398 219.556 C 90.399 219.422,90.864 218.628,91.431 217.792 C 92.030 216.909,92.629 215.251,92.860 213.836 C 93.357 210.794,93.915 209.306,94.795 208.684 C 95.247 208.365,95.703 206.975,96.137 204.600 C 96.653 201.768,97.003 200.815,97.778 200.135 C 98.567 199.442,98.892 198.527,99.408 195.535 C 99.879 192.811,100.301 191.529,100.970 190.800 C 101.610 190.102,102.029 188.907,102.356 186.848 C 102.690 184.742,103.160 183.424,103.996 182.248 C 104.973 180.874,105.970 177.338,105.997 175.155 C 105.999 175.020,106.540 174.231,107.200 173.400 C 107.877 172.548,108.400 171.410,108.400 170.789 C 108.400 167.898,114.725 166.741,124.736 167.803 C 129.266 168.283,128.800 162.827,128.800 215.418 L 128.800 261.236 127.818 262.218 C 126.405 263.631,117.013 263.740,115.762 262.358 C 115.028 261.547,114.993 260.206,114.800 225.591 C 114.690 205.833,114.487 189.553,114.349 189.415 C 114.210 189.277,113.880 190.387,113.615 191.882 C 112.927 195.750,112.438 197.151,111.622 197.588 C 111.114 197.860,110.725 198.969,110.272 201.438 C 109.872 203.615,109.271 205.445,108.658 206.353 C 108.080 207.209,107.491 208.932,107.216 210.571 C 106.725 213.501,106.339 214.501,105.196 215.800 C 104.809 216.240,104.282 217.844,104.023 219.364 C 103.532 222.261,102.863 223.917,101.846 224.762 C 101.512 225.039,101.124 226.106,100.983 227.133 C 100.554 230.260,99.967 232.159,99.157 233.033 C 98.671 233.559,98.170 235.109,97.801 237.233 C 97.350 239.828,96.998 240.791,96.264 241.433 C 95.532 242.073,95.160 243.085,94.654 245.813 C 94.161 248.473,93.747 249.621,92.998 250.402 C 92.213 251.221,91.915 252.115,91.601 254.590 C 91.382 256.321,90.930 258.111,90.598 258.568 C 90.265 259.026,89.395 260.210,88.664 261.200 L 87.335 263.000 82.915 263.113 L 78.496 263.225 76.818 261.222 C 75.077 259.142,74.645 258.037,74.194 254.509 C 74.014 253.094,73.558 251.954,72.784 250.980 C 72.071 250.082,71.544 248.837,71.383 247.670 C 70.971 244.663,70.440 242.931,69.755 242.363 C 68.875 241.632,68.392 240.250,67.951 237.204 C 67.713 235.555,67.207 234.076,66.563 233.147 C 65.900 232.190,65.352 230.552,64.977 228.402 C 64.576 226.105,64.114 224.776,63.438 223.972 C 62.512 222.871,61.600 219.815,61.600 217.811 C 61.600 217.289,61.155 216.333,60.611 215.686 C 59.294 214.120,58.875 212.919,58.553 209.775 C 58.405 208.326,58.073 206.929,57.815 206.670 C 56.615 205.465,56.002 203.965,55.582 201.199 C 55.245 198.991,54.870 197.929,54.157 197.172 C 53.238 196.197,52.025 191.979,52.007 189.700 C 52.003 189.205,51.820 188.800,51.600 188.800 C 51.380 188.800,51.197 189.565,51.194 190.500 C 51.190 191.435,51.193 207.697,51.200 226.638 C 51.215 267.603,51.934 263.200,45.230 263.200 C 40.283 263.200,38.430 262.433,37.949 260.185 C 37.809 259.533,37.673 239.006,37.647 214.570 L 37.600 170.139 38.548 169.249 C 40.134 167.759,50.762 166.892,55.597 167.859 M261.459 190.237 C 262.372 190.347,263.902 190.955,264.859 191.587 C 265.817 192.220,267.118 192.867,267.751 193.025 C 268.384 193.183,269.173 193.782,269.506 194.356 C 269.838 194.930,270.659 195.760,271.330 196.200 C 272.001 196.640,272.684 197.508,272.848 198.129 C 273.012 198.750,273.591 199.670,274.133 200.173 C 276.109 202.004,276.200 203.478,276.200 233.657 C 276.200 266.518,276.746 263.356,271.114 263.136 C 266.590 262.960,265.756 262.268,265.126 258.166 C 264.529 254.286,264.425 254.024,263.860 254.974 C 263.607 255.400,262.997 256.120,262.505 256.574 C 262.013 257.029,260.896 258.075,260.021 258.900 C 259.147 259.725,258.156 260.400,257.819 260.400 C 257.482 260.400,256.732 260.932,256.153 261.582 C 253.533 264.523,234.314 264.775,231.445 261.906 C 230.774 261.236,229.626 260.522,228.893 260.320 C 228.096 260.099,227.383 259.562,227.120 258.983 C 226.877 258.451,226.336 257.907,225.917 257.774 C 225.497 257.640,224.854 256.872,224.486 256.066 C 224.119 255.260,223.331 254.023,222.736 253.317 C 221.306 251.621,221.106 249.991,221.266 241.319 L 221.400 234.080 222.722 232.436 C 223.450 231.531,224.238 230.236,224.475 229.558 C 224.711 228.880,225.441 227.998,226.097 227.600 C 226.753 227.201,227.494 226.474,227.745 225.985 C 228.001 225.484,229.074 224.756,230.200 224.319 C 231.300 223.893,232.672 223.095,233.248 222.547 C 234.047 221.787,234.999 221.454,237.248 221.147 C 238.872 220.925,241.140 220.287,242.289 219.730 C 244.634 218.592,249.322 218.048,257.051 218.017 C 262.704 217.995,262.585 218.119,262.210 212.618 C 261.789 206.436,261.366 205.321,258.960 204.048 C 257.870 203.472,256.446 202.581,255.795 202.068 C 254.073 200.713,246.522 200.885,244.503 202.325 C 243.777 202.843,241.839 203.528,240.103 203.881 C 238.396 204.228,236.076 205.032,234.946 205.668 L 232.892 206.825 231.856 205.594 C 231.287 204.917,230.621 203.621,230.376 202.713 C 230.132 201.805,229.497 200.720,228.966 200.302 C 226.339 198.235,229.904 193.768,234.914 192.849 C 235.967 192.656,237.137 192.229,237.514 191.900 C 239.057 190.556,240.355 190.243,245.400 190.000 C 250.618 189.750,258.360 189.864,261.459 190.237 M366.056 190.453 C 367.077 190.676,368.261 191.183,368.687 191.580 C 369.113 191.977,369.898 192.435,370.431 192.598 C 373.287 193.471,373.763 199.995,371.046 201.038 C 370.721 201.162,370.272 201.791,370.048 202.434 C 369.267 204.675,365.191 204.799,358.188 202.797 C 354.613 201.774,353.664 201.798,349.885 203.005 C 348.171 203.552,346.422 204.000,345.997 204.000 C 345.572 204.000,344.826 204.538,344.340 205.196 C 343.853 205.854,343.125 206.497,342.721 206.625 C 342.317 206.753,341.710 207.520,341.373 208.329 C 341.035 209.138,340.330 210.160,339.805 210.600 C 336.734 213.176,336.707 240.421,339.773 243.000 C 340.296 243.440,340.994 244.458,341.325 245.262 C 342.142 247.244,344.180 249.106,346.162 249.678 C 347.063 249.939,348.330 250.585,348.977 251.115 C 350.606 252.448,359.010 252.347,361.000 250.970 C 363.242 249.419,370.272 248.676,371.800 249.829 C 373.133 250.835,373.238 258.029,371.937 259.190 C 367.103 263.501,366.538 263.658,355.600 263.735 C 345.426 263.807,342.308 263.446,340.665 262.004 C 339.962 261.386,338.635 260.679,337.715 260.431 C 335.929 259.950,330.982 256.003,330.580 254.738 C 330.455 254.344,329.825 253.645,329.180 253.186 C 328.371 252.610,327.818 251.698,327.394 250.239 C 327.055 249.073,326.337 247.742,325.790 247.266 C 325.246 246.793,324.800 246.255,324.800 246.072 C 324.800 244.728,323.510 236.973,323.230 236.630 C 321.692 234.750,321.407 222.415,322.812 218.540 C 323.279 217.253,323.927 214.310,324.253 212.000 C 324.739 208.550,325.022 207.615,325.837 206.762 C 326.383 206.192,327.020 205.036,327.253 204.194 C 327.485 203.352,328.153 202.184,328.738 201.599 C 329.322 201.014,330.292 199.830,330.894 198.968 C 331.495 198.106,332.665 196.950,333.494 196.400 C 334.322 195.850,335.327 194.997,335.726 194.504 C 336.126 194.010,337.427 193.324,338.619 192.977 C 339.810 192.631,340.890 192.178,341.018 191.971 C 342.254 189.971,359.159 188.946,366.056 190.453 M248.878 229.491 C 248.151 229.581,246.972 230.050,246.258 230.535 C 245.543 231.020,243.590 231.739,241.917 232.133 C 239.279 232.755,238.841 232.984,238.623 233.852 C 238.484 234.403,237.845 235.156,237.202 235.525 C 234.677 236.974,234.365 248.227,236.828 249.009 C 237.243 249.140,238.315 249.861,239.212 250.610 C 241.909 252.863,250.755 253.171,252.575 251.074 C 253.029 250.552,254.430 249.791,255.688 249.383 C 257.584 248.769,258.049 248.434,258.400 247.428 C 258.633 246.761,259.380 245.640,260.060 244.939 C 261.552 243.398,261.874 241.948,262.248 235.063 C 262.476 230.857,262.425 229.861,261.963 229.569 C 261.416 229.222,251.535 229.163,248.878 229.491 " stroke="none" fill="#5c5c5c" fill-rule="evenodd"></path><path id="path2" d="M296.648 161.997 C 296.014 162.196,295.069 162.759,294.548 163.249 L 293.600 164.139 293.623 211.170 C 293.636 237.036,293.773 258.914,293.928 259.787 C 294.410 262.504,295.946 263.200,301.459 263.200 C 306.870 263.200,307.388 262.900,307.786 259.533 C 308.472 253.731,307.819 163.248,307.087 162.514 C 306.273 161.700,298.776 161.328,296.648 161.997 M305.905 163.114 L 306.810 163.811 306.705 212.341 L 306.600 260.871 305.656 261.635 C 304.445 262.616,299.374 262.718,297.595 261.797 C 295.565 260.748,295.590 261.410,295.698 210.951 L 295.800 163.800 297.200 163.101 C 299.155 162.124,304.630 162.133,305.905 163.114 M183.400 165.845 C 182.960 165.958,181.520 166.392,180.200 166.809 C 178.880 167.226,176.630 167.687,175.200 167.834 C 172.333 168.129,170.236 168.852,169.005 169.970 C 168.562 170.372,167.513 170.922,166.673 171.191 C 165.762 171.483,164.974 172.058,164.718 172.620 C 164.483 173.137,163.818 173.725,163.241 173.926 C 161.243 174.622,155.842 179.854,155.241 181.674 C 154.999 182.409,154.399 183.188,153.909 183.405 C 153.389 183.635,152.763 184.510,152.408 185.502 C 152.074 186.438,151.419 187.466,150.954 187.787 C 150.326 188.220,149.924 189.274,149.392 191.885 C 148.998 193.818,148.355 195.760,147.964 196.200 C 147.573 196.640,147.053 197.529,146.807 198.177 C 146.339 199.413,145.110 214.474,145.409 215.313 C 145.504 215.581,145.751 219.490,145.959 224.000 C 146.335 232.206,146.634 233.904,147.965 235.400 C 148.359 235.843,148.964 237.717,149.322 239.600 C 149.841 242.326,150.172 243.163,150.996 243.824 C 151.560 244.277,152.199 245.285,152.414 246.065 C 152.629 246.844,153.264 248.003,153.826 248.641 C 154.387 249.278,155.131 250.334,155.479 250.988 C 156.444 252.800,160.421 256.591,162.418 257.602 C 163.398 258.098,164.342 258.748,164.516 259.046 C 164.690 259.343,165.860 259.880,167.116 260.239 C 168.372 260.597,169.760 261.218,170.200 261.619 C 173.365 264.499,204.053 264.627,206.425 261.770 C 206.706 261.431,207.537 260.903,208.271 260.596 C 210.628 259.611,211.477 252.097,209.492 249.789 L 208.583 248.733 202.392 249.412 C 198.986 249.786,195.171 250.431,193.913 250.846 C 190.845 251.857,186.307 251.848,183.515 250.825 C 182.352 250.399,180.500 249.934,179.400 249.793 C 176.302 249.394,174.706 248.804,173.400 247.577 C 172.740 246.957,171.702 246.261,171.093 246.032 C 170.484 245.802,169.811 245.154,169.596 244.591 C 169.382 244.028,168.667 243.259,168.006 242.883 C 167.346 242.508,166.804 241.873,166.803 241.474 C 166.799 240.512,166.134 239.289,164.741 237.686 C 164.114 236.963,163.598 235.973,163.595 235.486 C 163.586 233.828,162.432 230.240,161.515 229.018 C 160.608 227.810,160.600 227.696,160.600 215.400 L 160.600 203.000 161.669 201.490 C 162.591 200.188,163.600 197.041,163.600 195.470 C 163.600 195.199,164.320 194.020,165.200 192.849 C 166.080 191.678,166.800 190.283,166.800 189.750 C 166.800 189.100,167.110 188.662,167.742 188.422 C 168.259 188.225,169.063 187.420,169.528 186.632 C 169.993 185.844,170.633 185.200,170.951 185.200 C 171.269 185.200,171.974 184.671,172.518 184.025 C 173.167 183.253,174.279 182.625,175.758 182.195 C 176.996 181.835,178.581 181.059,179.281 180.470 C 180.781 179.207,194.420 178.577,196.246 179.686 C 199.137 181.443,200.603 181.968,204.199 182.533 C 208.865 183.267,209.686 183.002,210.365 180.541 C 210.588 179.735,211.252 178.572,211.842 177.956 C 214.077 175.623,213.537 171.673,210.892 171.009 C 210.315 170.864,209.256 170.230,208.539 169.600 C 207.647 168.817,206.626 168.379,205.317 168.218 C 200.312 167.601,197.808 167.129,196.464 166.549 C 194.996 165.916,185.182 165.387,183.400 165.845 M197.000 168.029 C 203.218 168.791,204.080 168.996,207.076 170.431 C 208.878 171.294,210.515 172.000,210.714 172.000 C 212.346 172.000,212.587 173.661,211.313 176.133 C 210.614 177.490,209.735 179.292,209.358 180.137 C 208.291 182.533,204.909 182.489,199.825 180.012 C 196.558 178.421,190.261 177.770,183.935 178.369 C 177.170 179.010,169.150 183.854,166.132 189.122 C 165.541 190.155,164.736 191.315,164.344 191.701 C 163.952 192.086,163.280 193.526,162.850 194.901 C 162.420 196.275,161.602 198.408,161.033 199.639 C 158.519 205.073,158.671 227.043,161.257 232.112 C 161.688 232.957,162.392 234.786,162.822 236.176 C 163.251 237.567,163.885 238.939,164.231 239.225 C 164.576 239.512,165.213 240.441,165.646 241.290 C 167.213 244.361,173.063 249.387,175.780 249.995 C 176.836 250.232,178.494 250.787,179.464 251.229 C 183.598 253.112,193.481 253.097,199.200 251.198 C 203.238 249.858,207.919 249.546,208.859 250.556 C 209.916 251.690,209.947 257.969,208.900 258.894 C 204.139 263.100,179.105 264.586,172.141 261.077 C 171.074 260.539,169.621 259.973,168.913 259.820 C 168.206 259.667,166.986 259.107,166.202 258.576 C 165.419 258.044,164.203 257.312,163.501 256.949 C 161.624 255.978,157.683 252.108,156.147 249.726 C 155.411 248.586,154.618 247.534,154.383 247.390 C 154.149 247.245,153.508 246.110,152.958 244.867 C 152.409 243.625,151.611 242.237,151.185 241.784 C 150.696 241.264,150.198 239.747,149.837 237.679 C 149.522 235.875,148.900 233.809,148.454 233.087 C 145.769 228.743,145.741 204.179,148.415 198.450 C 149.069 197.047,149.720 194.919,149.861 193.719 C 150.012 192.437,150.509 190.962,151.068 190.138 C 151.590 189.368,152.446 187.897,152.969 186.869 C 153.493 185.841,154.389 184.564,154.960 184.030 C 155.532 183.497,156.000 182.798,156.000 182.477 C 156.000 181.811,163.122 174.800,163.799 174.800 C 164.043 174.800,164.854 174.170,165.600 173.400 C 166.346 172.630,167.179 172.000,167.449 172.000 C 167.720 172.000,169.170 171.347,170.671 170.550 C 176.094 167.667,186.166 166.703,197.000 168.029 M40.648 168.014 C 40.014 168.204,39.069 168.759,38.548 169.249 L 37.600 170.139 37.647 214.570 C 37.673 239.006,37.809 259.533,37.949 260.185 C 38.430 262.433,40.283 263.200,45.230 263.200 C 51.934 263.200,51.215 267.603,51.200 226.638 C 51.193 207.697,51.190 191.435,51.194 190.500 C 51.197 189.565,51.380 188.800,51.600 188.800 C 51.820 188.800,52.003 189.205,52.007 189.700 C 52.025 191.979,53.238 196.197,54.157 197.172 C 54.870 197.929,55.245 198.991,55.582 201.199 C 56.002 203.965,56.615 205.465,57.815 206.670 C 58.073 206.929,58.405 208.326,58.553 209.775 C 58.875 212.919,59.294 214.120,60.611 215.686 C 61.155 216.333,61.600 217.289,61.600 217.811 C 61.600 219.815,62.512 222.871,63.438 223.972 C 64.114 224.776,64.576 226.105,64.977 228.402 C 65.352 230.552,65.900 232.190,66.563 233.147 C 67.207 234.076,67.713 235.555,67.951 237.204 C 68.392 240.250,68.875 241.632,69.755 242.363 C 70.440 242.931,70.971 244.663,71.383 247.670 C 71.544 248.837,72.071 250.082,72.784 250.980 C 73.558 251.954,74.014 253.094,74.194 254.509 C 74.645 258.037,75.077 259.142,76.818 261.222 L 78.496 263.225 82.915 263.113 L 87.335 263.000 88.664 261.200 C 89.395 260.210,90.265 259.026,90.598 258.568 C 90.930 258.111,91.382 256.321,91.601 254.590 C 91.915 252.115,92.213 251.221,92.998 250.402 C 93.747 249.621,94.161 248.473,94.654 245.813 C 95.160 243.085,95.532 242.073,96.264 241.433 C 96.998 240.791,97.350 239.828,97.801 237.233 C 98.170 235.109,98.671 233.559,99.157 233.033 C 99.967 232.159,100.554 230.260,100.983 227.133 C 101.124 226.106,101.512 225.039,101.846 224.762 C 102.863 223.917,103.532 222.261,104.023 219.364 C 104.282 217.844,104.809 216.240,105.196 215.800 C 106.339 214.501,106.725 213.501,107.216 210.571 C 107.491 208.932,108.080 207.209,108.658 206.353 C 109.271 205.445,109.872 203.615,110.272 201.438 C 110.725 198.969,111.114 197.860,111.622 197.588 C 112.438 197.151,112.927 195.750,113.615 191.882 C 113.880 190.387,114.210 189.277,114.349 189.415 C 114.487 189.553,114.690 205.833,114.800 225.591 C 114.993 260.206,115.028 261.547,115.762 262.358 C 117.013 263.740,126.405 263.631,127.818 262.218 L 128.800 261.236 128.800 215.418 C 128.800 162.827,129.266 168.283,124.736 167.803 C 114.725 166.741,108.400 167.898,108.400 170.789 C 108.400 171.410,107.877 172.548,107.200 173.400 C 106.540 174.231,105.999 175.020,105.997 175.155 C 105.970 177.338,104.973 180.874,103.996 182.248 C 103.160 183.424,102.690 184.742,102.356 186.848 C 102.029 188.907,101.610 190.102,100.970 190.800 C 100.301 191.529,99.879 192.811,99.408 195.535 C 98.892 198.527,98.567 199.442,97.778 200.135 C 97.003 200.815,96.653 201.768,96.137 204.600 C 95.703 206.975,95.247 208.365,94.795 208.684 C 93.915 209.306,93.357 210.794,92.860 213.836 C 92.629 215.251,92.030 216.909,91.431 217.792 C 90.864 218.628,90.399 219.422,90.398 219.556 C 90.380 221.444,89.397 224.847,88.437 226.343 C 87.653 227.567,87.096 229.143,86.805 230.963 C 86.505 232.843,86.053 234.096,85.393 234.882 C 84.858 235.517,84.247 236.703,84.035 237.518 C 83.823 238.333,83.491 239.630,83.298 240.400 C 82.948 241.791,82.943 241.783,82.452 239.200 C 81.743 235.475,81.240 234.074,80.402 233.487 C 79.923 233.151,79.510 232.068,79.220 230.386 C 78.442 225.879,78.348 225.585,77.398 224.683 C 76.716 224.035,76.302 222.904,75.844 220.436 C 75.455 218.342,74.850 216.529,74.239 215.636 C 73.697 214.841,73.146 213.307,73.005 212.200 C 72.668 209.543,71.752 207.062,70.786 206.187 C 70.354 205.796,70.000 205.204,70.000 204.871 C 70.000 202.614,69.001 199.059,68.019 197.824 C 67.171 196.757,66.864 195.844,66.676 193.837 C 66.442 191.325,65.161 188.000,64.428 188.000 C 64.232 188.000,63.853 186.695,63.586 185.100 C 62.998 181.599,62.597 180.467,61.548 179.347 C 61.029 178.793,60.599 177.489,60.323 175.630 C 59.765 171.865,57.568 168.254,55.597 167.859 C 53.725 167.485,42.010 167.606,40.648 168.014 M55.883 169.003 C 57.014 169.795,58.674 173.448,59.627 177.242 C 60.047 178.915,60.825 181.075,61.356 182.042 C 61.886 183.009,62.525 184.790,62.776 186.000 C 63.027 187.210,63.756 189.280,64.394 190.600 C 65.033 191.920,65.856 194.350,66.223 196.000 C 66.590 197.650,67.138 199.282,67.441 199.626 C 67.743 199.971,68.366 201.762,68.825 203.606 C 69.284 205.451,70.091 207.695,70.617 208.593 C 71.144 209.492,71.852 211.545,72.191 213.157 C 72.530 214.768,73.166 216.591,73.605 217.207 C 74.044 217.823,74.689 219.739,75.038 221.464 C 75.388 223.189,76.098 225.336,76.617 226.236 C 77.135 227.136,77.861 229.116,78.230 230.636 C 78.599 232.156,79.330 234.191,79.854 235.157 C 80.379 236.124,81.092 238.010,81.438 239.348 C 82.609 243.866,82.674 243.864,84.874 239.244 C 85.953 236.980,87.118 234.019,87.464 232.664 C 87.810 231.309,88.502 229.390,89.001 228.400 C 89.501 227.410,90.321 225.072,90.824 223.205 C 91.327 221.338,92.045 219.268,92.420 218.605 C 92.794 217.942,93.402 216.156,93.771 214.636 C 94.139 213.116,94.859 211.136,95.370 210.236 C 95.881 209.336,96.601 207.356,96.970 205.836 C 97.339 204.316,98.071 202.336,98.597 201.436 C 99.124 200.536,99.737 198.658,99.961 197.263 C 100.184 195.867,100.824 193.947,101.382 192.994 C 101.940 192.042,102.680 190.034,103.025 188.531 C 103.371 187.029,104.091 185.049,104.625 184.131 C 105.160 183.214,105.882 181.234,106.230 179.731 C 106.578 178.229,107.202 176.370,107.617 175.600 C 108.032 174.830,108.656 173.180,109.004 171.934 C 109.946 168.561,109.839 168.600,118.231 168.600 C 125.041 168.600,125.618 168.658,126.670 169.443 L 127.800 170.286 127.902 213.764 C 128.027 267.127,128.757 262.291,120.562 262.369 C 115.270 262.419,115.833 266.699,115.600 224.658 C 115.436 195.131,115.301 188.425,114.852 187.636 C 114.137 186.380,113.783 186.965,112.747 191.112 C 112.335 192.760,111.639 194.690,111.200 195.400 C 110.761 196.110,110.068 198.021,109.660 199.646 C 109.252 201.271,108.548 203.410,108.096 204.400 C 107.643 205.390,106.973 207.357,106.607 208.771 C 106.241 210.186,105.526 212.166,105.019 213.171 C 104.511 214.177,103.721 216.374,103.262 218.053 C 102.803 219.733,102.056 221.737,101.602 222.506 C 101.148 223.276,100.501 225.229,100.164 226.846 C 99.827 228.462,99.183 230.380,98.734 231.106 C 98.285 231.833,97.581 233.777,97.168 235.426 C 96.756 237.076,95.981 239.184,95.446 240.113 C 94.911 241.041,94.260 242.880,94.000 244.200 C 93.740 245.520,93.118 247.320,92.619 248.200 C 92.119 249.080,91.421 251.104,91.067 252.698 C 90.371 255.832,87.589 261.364,86.386 262.007 C 85.443 262.512,80.168 262.518,79.229 262.015 C 77.784 261.242,75.265 256.360,74.802 253.437 C 74.561 251.917,74.010 250.175,73.576 249.566 C 73.142 248.957,72.417 246.969,71.964 245.149 C 71.511 243.329,70.720 241.111,70.208 240.220 C 69.695 239.329,69.047 237.520,68.768 236.200 C 68.489 234.880,67.836 232.853,67.316 231.695 C 66.797 230.538,66.035 228.241,65.623 226.590 C 65.210 224.940,64.500 222.957,64.044 222.185 C 63.588 221.412,62.852 219.322,62.409 217.539 C 61.965 215.756,61.256 213.735,60.833 213.049 C 60.410 212.362,59.685 210.270,59.221 208.400 C 58.757 206.530,58.027 204.352,57.597 203.560 C 57.168 202.768,56.533 200.898,56.186 199.404 C 55.840 197.910,55.114 195.814,54.573 194.747 C 54.033 193.680,53.321 191.647,52.992 190.229 C 52.264 187.090,52.011 186.400,51.588 186.400 C 50.521 186.400,50.393 190.210,50.298 224.870 C 50.184 266.704,50.750 262.400,45.360 262.400 C 42.432 262.400,41.913 262.287,40.922 261.435 L 39.800 260.469 39.693 215.233 L 39.587 169.996 40.893 169.200 C 42.628 168.142,54.433 167.987,55.883 169.003 M245.400 190.000 C 240.355 190.243,239.057 190.556,237.514 191.900 C 237.137 192.229,235.967 192.656,234.914 192.849 C 229.904 193.768,226.339 198.235,228.966 200.302 C 229.497 200.720,230.132 201.805,230.376 202.713 C 230.621 203.621,231.287 204.917,231.856 205.594 L 232.892 206.825 234.946 205.668 C 236.076 205.032,238.396 204.228,240.103 203.881 C 241.839 203.528,243.777 202.843,244.503 202.325 C 246.522 200.885,254.073 200.713,255.795 202.068 C 256.446 202.581,257.870 203.472,258.960 204.048 C 261.366 205.321,261.789 206.436,262.210 212.618 C 262.585 218.119,262.704 217.995,257.051 218.017 C 249.322 218.048,244.634 218.592,242.289 219.730 C 241.140 220.287,238.872 220.925,237.248 221.147 C 234.999 221.454,234.047 221.787,233.248 222.547 C 232.672 223.095,231.300 223.893,230.200 224.319 C 229.074 224.756,228.001 225.484,227.745 225.985 C 227.494 226.474,226.753 227.201,226.097 227.600 C 225.441 227.998,224.711 228.880,224.475 229.558 C 224.238 230.236,223.450 231.531,222.722 232.436 L 221.400 234.080 221.266 241.319 C 221.106 249.991,221.306 251.621,222.736 253.317 C 223.331 254.023,224.119 255.260,224.486 256.066 C 224.854 256.872,225.497 257.640,225.917 257.774 C 226.336 257.907,226.877 258.451,227.120 258.983 C 227.383 259.562,228.096 260.099,228.893 260.320 C 229.626 260.522,230.774 261.236,231.445 261.906 C 234.314 264.775,253.533 264.523,256.153 261.582 C 256.732 260.932,257.482 260.400,257.819 260.400 C 258.156 260.400,259.147 259.725,260.021 258.900 C 260.896 258.075,262.013 257.029,262.505 256.574 C 262.997 256.120,263.607 255.400,263.860 254.974 C 264.425 254.024,264.529 254.286,265.126 258.166 C 265.756 262.268,266.590 262.960,271.114 263.136 C 276.746 263.356,276.200 266.518,276.200 233.657 C 276.200 203.478,276.109 202.004,274.133 200.173 C 273.591 199.670,273.012 198.750,272.848 198.129 C 272.684 197.508,272.001 196.640,271.330 196.200 C 270.659 195.760,269.838 194.930,269.506 194.356 C 269.173 193.782,268.384 193.183,267.751 193.025 C 267.118 192.867,265.817 192.220,264.859 191.587 C 263.902 190.955,262.372 190.347,261.459 190.237 C 258.360 189.864,250.618 189.750,245.400 190.000 M348.800 190.011 C 343.987 190.227,341.747 190.792,341.018 191.971 C 340.890 192.178,339.810 192.631,338.619 192.977 C 337.427 193.324,336.126 194.010,335.726 194.504 C 335.327 194.997,334.322 195.850,333.494 196.400 C 332.665 196.950,331.495 198.106,330.894 198.968 C 330.292 199.830,329.322 201.014,328.738 201.599 C 328.153 202.184,327.485 203.352,327.253 204.194 C 327.020 205.036,326.383 206.192,325.837 206.762 C 325.022 207.615,324.739 208.550,324.253 212.000 C 323.927 214.310,323.279 217.253,322.812 218.540 C 321.407 222.415,321.692 234.750,323.230 236.630 C 323.510 236.973,324.800 244.728,324.800 246.072 C 324.800 246.255,325.246 246.793,325.790 247.266 C 326.337 247.742,327.055 249.073,327.394 250.239 C 327.818 251.698,328.371 252.610,329.180 253.186 C 329.825 253.645,330.455 254.344,330.580 254.738 C 330.982 256.003,335.929 259.950,337.715 260.431 C 338.635 260.679,339.962 261.386,340.665 262.004 C 342.308 263.446,345.426 263.807,355.600 263.735 C 366.538 263.658,367.103 263.501,371.937 259.190 C 373.238 258.029,373.133 250.835,371.800 249.829 C 370.272 248.676,363.242 249.419,361.000 250.970 C 359.010 252.347,350.606 252.448,348.977 251.115 C 348.330 250.585,347.063 249.939,346.162 249.678 C 344.180 249.106,342.142 247.244,341.325 245.262 C 340.994 244.458,340.296 243.440,339.773 243.000 C 336.707 240.421,336.734 213.176,339.805 210.600 C 340.330 210.160,341.035 209.138,341.373 208.329 C 341.710 207.520,342.317 206.753,342.721 206.625 C 343.125 206.497,343.853 205.854,344.340 205.196 C 344.826 204.538,345.572 204.000,345.997 204.000 C 346.422 204.000,348.171 203.552,349.885 203.005 C 353.664 201.798,354.613 201.774,358.188 202.797 C 365.191 204.799,369.267 204.675,370.048 202.434 C 370.272 201.791,370.721 201.162,371.046 201.038 C 373.763 199.995,373.287 193.471,370.431 192.598 C 369.898 192.435,369.113 191.977,368.687 191.580 C 367.108 190.109,359.669 189.522,348.800 190.011 M260.154 191.235 C 266.916 192.548,273.413 198.531,274.884 204.799 C 275.368 206.866,275.824 254.311,275.397 258.336 C 274.677 265.137,266.818 263.496,265.799 256.332 C 265.311 252.896,264.613 252.849,261.413 256.041 C 256.922 260.522,253.089 262.371,247.404 262.800 C 241.523 263.243,235.165 262.709,233.460 261.628 C 232.767 261.189,231.390 260.383,230.400 259.836 C 227.999 258.511,224.800 255.474,224.800 254.521 C 224.800 254.100,224.372 253.175,223.849 252.466 C 221.640 249.473,221.139 237.100,223.117 234.425 C 223.622 233.743,224.386 232.367,224.815 231.366 C 225.763 229.153,229.462 225.654,231.790 224.767 C 232.704 224.419,233.991 223.735,234.650 223.248 C 235.382 222.706,237.083 222.145,239.024 221.806 C 240.771 221.500,243.846 220.882,245.857 220.433 C 247.938 219.969,252.164 219.476,255.657 219.290 C 264.800 218.802,265.581 217.536,262.731 207.830 C 261.749 204.487,261.876 204.637,257.217 201.304 C 255.557 200.116,244.754 200.273,242.651 201.515 C 241.800 202.018,239.229 202.940,236.939 203.562 L 232.775 204.694 231.987 203.693 C 231.554 203.143,231.200 202.503,231.200 202.272 C 231.200 202.041,230.824 201.076,230.365 200.128 L 229.530 198.403 230.841 196.748 C 232.044 195.229,234.638 193.630,235.933 193.609 C 236.226 193.604,237.734 193.044,239.283 192.363 C 243.379 190.566,253.803 190.002,260.154 191.235 M363.600 191.274 C 365.030 191.511,366.396 191.859,366.635 192.047 C 366.874 192.235,367.855 192.666,368.815 193.005 C 372.123 194.172,372.666 195.384,371.153 198.215 C 370.688 199.087,369.966 200.469,369.550 201.288 C 368.213 203.915,366.491 204.003,360.497 201.747 C 356.828 200.366,351.343 200.390,348.568 201.799 C 347.486 202.349,346.029 202.988,345.332 203.220 C 343.595 203.797,338.004 210.151,337.997 211.555 C 337.995 211.910,337.434 214.360,336.749 217.000 C 334.600 225.290,335.792 239.784,338.980 244.129 C 339.332 244.608,340.260 245.961,341.044 247.135 C 341.971 248.524,342.962 249.476,343.880 249.859 C 344.656 250.183,346.023 250.933,346.918 251.524 C 349.602 253.299,360.131 253.159,364.267 251.293 C 369.859 248.771,371.601 249.586,371.598 254.723 L 371.596 258.200 368.820 260.106 C 365.277 262.539,363.692 262.847,354.600 262.869 C 346.688 262.889,343.748 262.474,341.612 261.037 C 340.836 260.514,339.548 259.880,338.751 259.629 C 335.271 258.531,329.142 252.204,327.758 248.280 C 327.460 247.437,326.864 246.299,326.432 245.750 C 324.324 243.070,323.114 228.762,324.202 219.400 C 325.096 211.714,325.501 209.573,326.207 208.792 C 326.557 208.406,327.207 207.131,327.652 205.959 C 329.253 201.748,335.839 195.209,340.280 193.424 C 341.556 192.910,343.320 192.177,344.200 191.793 C 347.092 190.532,357.463 190.255,363.600 191.274 M252.800 228.394 C 246.588 228.748,245.823 228.904,242.711 230.458 C 241.453 231.086,240.175 231.600,239.872 231.600 C 238.518 231.600,234.878 236.196,234.618 238.234 C 234.480 239.315,234.298 240.650,234.213 241.200 C 233.813 243.810,234.790 248.575,235.910 249.483 C 236.510 249.969,237.450 250.807,238.000 251.346 C 240.687 253.980,250.795 253.917,254.600 251.243 C 255.480 250.625,256.650 250.001,257.200 249.857 C 257.750 249.712,258.690 248.920,259.290 248.097 C 259.889 247.274,260.742 246.150,261.184 245.600 C 262.395 244.095,263.637 238.724,263.882 233.942 L 264.099 229.684 263.027 228.981 C 261.703 228.114,259.714 227.999,252.800 228.394 M261.963 229.569 C 262.425 229.861,262.476 230.857,262.248 235.063 C 261.874 241.948,261.552 243.398,260.060 244.939 C 259.380 245.640,258.633 246.761,258.400 247.428 C 258.049 248.434,257.584 248.769,255.688 249.383 C 254.430 249.791,253.029 250.552,252.575 251.074 C 250.755 253.171,241.909 252.863,239.212 250.610 C 238.315 249.861,237.243 249.140,236.828 249.009 C 234.365 248.227,234.677 236.974,237.202 235.525 C 237.845 235.156,238.484 234.403,238.623 233.852 C 238.841 232.984,239.279 232.755,241.917 232.133 C 243.590 231.739,245.543 231.020,246.258 230.535 C 246.972 230.050,248.151 229.581,248.878 229.491 C 251.535 229.163,261.416 229.222,261.963 229.569 " stroke="none" fill="#999999" fill-rule="evenodd"></path><path id="path3" d="M297.100 163.503 L 296.000 164.185 296.000 211.305 C 296.000 267.231,295.388 262.153,302.100 261.916 C 307.095 261.740,306.600 267.272,306.600 211.668 C 306.600 156.427,307.248 162.793,301.624 162.811 C 299.109 162.818,297.908 163.002,297.100 163.503 M305.671 165.400 C 306.336 169.160,306.040 257.885,305.357 259.592 L 304.713 261.200 301.631 261.200 L 298.548 261.200 297.874 259.786 C 296.992 257.937,296.817 164.943,297.694 164.066 C 298.031 163.729,299.330 163.609,301.788 163.686 L 305.388 163.800 305.671 165.400 M184.400 167.849 C 175.623 168.944,174.090 169.252,172.000 170.337 C 170.790 170.966,169.155 171.691,168.366 171.949 C 167.577 172.207,166.419 172.954,165.791 173.609 C 165.164 174.264,164.455 174.800,164.217 174.800 C 163.555 174.800,157.413 180.880,156.292 182.644 C 155.749 183.500,154.920 184.543,154.452 184.962 C 153.983 185.381,153.600 185.932,153.600 186.187 C 153.600 186.442,152.864 187.871,151.964 189.362 C 150.814 191.270,150.228 192.784,149.990 194.467 C 149.804 195.784,149.193 197.738,148.633 198.810 C 146.130 203.598,146.103 227.473,148.596 232.392 C 149.189 233.562,149.777 235.632,149.983 237.277 C 150.222 239.177,150.623 240.477,151.184 241.165 C 151.647 241.734,152.452 243.110,152.974 244.223 C 153.495 245.335,154.356 246.775,154.887 247.423 C 155.418 248.070,156.252 249.261,156.740 250.070 C 157.808 251.837,161.954 255.750,163.727 256.663 C 164.427 257.023,165.540 257.712,166.200 258.192 C 166.860 258.673,168.210 259.295,169.200 259.574 C 170.190 259.854,171.946 260.527,173.103 261.072 C 176.872 262.845,194.692 263.295,200.587 261.765 C 208.495 259.714,209.200 259.146,209.200 254.827 C 209.200 249.344,207.878 248.866,199.960 251.488 C 196.759 252.547,196.239 252.600,189.000 252.600 L 181.400 252.600 178.333 251.300 C 176.647 250.585,174.932 250.000,174.522 250.000 C 171.951 250.000,163.802 240.618,162.415 236.060 C 162.036 234.817,161.351 233.068,160.892 232.173 C 158.314 227.144,158.351 204.052,160.946 198.893 C 161.469 197.852,162.184 196.005,162.534 194.788 C 162.885 193.572,163.718 191.964,164.386 191.216 C 165.053 190.468,165.600 189.653,165.600 189.404 C 165.600 187.618,171.214 182.791,176.338 180.172 L 180.075 178.261 186.338 178.083 C 193.269 177.885,197.853 178.398,199.892 179.601 C 203.931 181.984,207.986 182.207,208.986 180.100 C 209.377 179.275,210.252 177.492,210.929 176.138 C 212.137 173.726,212.076 172.400,210.758 172.400 C 210.569 172.400,208.927 171.688,207.107 170.818 C 202.783 168.749,190.282 167.115,184.400 167.849 M40.900 169.470 L 40.000 170.098 40.000 214.151 C 40.000 266.298,39.504 261.964,45.477 261.987 C 50.489 262.007,49.995 266.083,50.030 224.411 C 50.061 188.146,50.136 186.155,51.489 185.704 C 51.919 185.560,52.890 188.120,53.421 190.800 C 53.574 191.570,54.154 193.100,54.710 194.200 C 55.266 195.300,56.057 197.542,56.468 199.182 C 56.879 200.823,57.473 202.558,57.788 203.038 C 58.103 203.518,58.740 205.416,59.203 207.256 C 59.667 209.095,60.489 211.458,61.031 212.507 C 61.572 213.555,62.291 215.605,62.629 217.063 C 62.967 218.520,63.673 220.560,64.198 221.596 C 64.723 222.631,65.532 224.966,65.996 226.784 C 66.460 228.601,67.098 230.483,67.414 230.965 C 67.729 231.447,68.364 233.353,68.824 235.200 C 69.284 237.048,70.080 239.289,70.593 240.180 C 71.107 241.071,71.744 242.880,72.010 244.200 C 72.277 245.520,73.013 247.630,73.647 248.889 C 74.281 250.147,74.800 251.503,74.800 251.901 C 74.800 254.435,76.598 258.420,78.950 261.100 C 79.873 262.152,85.299 262.441,86.469 261.500 C 87.619 260.574,90.317 255.021,90.792 252.600 C 91.051 251.280,91.691 249.364,92.213 248.343 C 92.735 247.322,93.448 245.256,93.797 243.752 C 94.145 242.248,94.862 240.281,95.390 239.381 C 95.917 238.481,96.627 236.545,96.967 235.079 C 97.307 233.613,98.044 231.536,98.604 230.465 C 99.165 229.393,99.785 227.520,99.983 226.303 C 100.181 225.085,100.869 223.034,101.511 221.744 C 102.154 220.455,102.975 218.197,103.337 216.727 C 103.699 215.256,104.345 213.456,104.773 212.727 C 105.201 211.997,105.921 210.013,106.373 208.318 C 106.825 206.622,107.549 204.552,107.982 203.718 C 108.416 202.883,109.058 200.952,109.411 199.428 C 109.763 197.903,110.477 195.923,110.999 195.028 C 111.520 194.132,112.228 192.174,112.573 190.676 C 112.918 189.178,113.438 187.496,113.730 186.940 L 114.260 185.927 115.030 187.064 C 115.772 188.159,115.807 189.513,116.000 224.439 C 116.165 254.347,116.296 260.793,116.749 261.339 C 117.428 262.156,123.022 262.220,125.197 261.435 C 127.613 260.563,127.535 262.115,127.569 214.109 L 127.600 170.418 126.519 169.709 C 125.606 169.110,124.318 168.981,118.203 168.876 C 109.945 168.735,110.082 168.685,109.238 172.149 C 108.977 173.221,108.343 174.931,107.829 175.949 C 107.314 176.967,106.676 178.880,106.410 180.200 C 106.144 181.520,105.489 183.359,104.954 184.287 C 104.419 185.216,103.644 187.324,103.232 188.974 C 102.819 190.623,102.097 192.597,101.625 193.359 C 101.154 194.122,100.495 196.063,100.160 197.673 C 99.826 199.283,99.140 201.320,98.636 202.200 C 98.132 203.080,97.411 205.060,97.034 206.600 C 96.658 208.140,95.995 210.006,95.561 210.747 C 95.127 211.487,94.397 213.467,93.938 215.147 C 93.480 216.826,92.777 218.846,92.378 219.635 C 91.978 220.424,91.283 222.510,90.833 224.270 C 90.384 226.030,89.583 228.265,89.053 229.235 C 88.523 230.206,87.867 231.990,87.595 233.200 C 87.322 234.410,86.204 237.252,85.109 239.516 C 82.837 244.218,82.520 244.284,81.404 240.293 C 81.021 238.922,80.291 236.977,79.783 235.971 C 79.275 234.966,78.573 232.986,78.223 231.571 C 77.874 230.157,77.052 227.920,76.397 226.600 C 75.742 225.280,75.089 223.300,74.946 222.200 C 74.802 221.100,74.180 219.189,73.563 217.953 C 72.947 216.717,72.162 214.498,71.820 213.022 C 71.477 211.545,70.764 209.586,70.235 208.669 C 69.706 207.751,69.055 205.920,68.788 204.600 C 68.521 203.280,67.883 201.390,67.371 200.400 C 66.859 199.410,66.139 197.250,65.771 195.600 C 65.403 193.950,64.681 191.876,64.166 190.991 C 63.652 190.106,62.942 188.126,62.588 186.591 C 62.235 185.056,61.533 183.080,61.027 182.200 C 60.522 181.320,59.895 179.610,59.634 178.400 C 58.989 175.414,56.869 170.358,55.901 169.500 C 54.787 168.512,42.309 168.487,40.900 169.470 M196.400 169.216 C 201.796 169.595,202.397 169.720,205.030 171.012 C 206.586 171.775,207.959 172.400,208.081 172.400 C 208.203 172.400,208.975 172.681,209.798 173.025 L 211.293 173.650 210.466 174.530 C 210.011 175.014,209.370 176.445,209.040 177.710 C 208.711 178.975,208.319 180.208,208.169 180.450 C 207.680 181.242,203.795 180.635,202.078 179.499 C 197.682 176.590,178.283 176.432,175.733 179.284 C 175.330 179.735,174.257 180.425,173.349 180.817 C 172.441 181.209,171.217 181.951,170.629 182.465 C 168.005 184.761,165.879 187.123,165.122 188.582 C 164.670 189.451,163.891 190.485,163.391 190.879 C 162.830 191.320,162.295 192.401,161.997 193.697 C 161.731 194.854,161.098 196.430,160.590 197.200 C 159.029 199.566,158.764 201.443,158.527 211.800 C 158.202 226.022,158.732 230.951,161.004 234.800 C 161.329 235.350,161.786 236.575,162.019 237.523 C 162.254 238.476,163.058 239.927,163.822 240.771 C 164.580 241.610,165.200 242.518,165.200 242.788 C 165.200 243.058,165.698 243.756,166.307 244.340 C 166.916 244.923,167.728 245.892,168.112 246.494 C 168.496 247.095,169.248 247.697,169.784 247.832 C 170.320 247.966,171.035 248.499,171.374 249.016 C 171.761 249.607,172.845 250.219,174.295 250.665 C 175.563 251.055,177.066 251.707,177.636 252.114 C 180.769 254.356,196.933 254.240,201.899 251.941 C 202.944 251.457,204.842 250.980,206.115 250.881 L 208.430 250.702 208.315 254.634 L 208.200 258.566 205.710 259.069 C 204.340 259.346,202.450 259.948,201.510 260.408 C 197.399 262.417,177.150 262.586,174.800 260.631 C 173.975 259.945,172.240 259.339,169.400 258.746 C 167.994 258.452,166.782 257.943,166.474 257.517 C 166.184 257.117,165.284 256.447,164.474 256.030 C 162.577 255.052,157.841 250.436,156.976 248.723 C 156.609 247.995,155.893 246.950,155.385 246.400 C 154.877 245.850,154.147 244.590,153.762 243.600 C 153.377 242.610,152.593 241.254,152.020 240.587 C 151.191 239.622,150.872 238.624,150.458 235.702 C 150.124 233.339,149.667 231.685,149.179 231.064 C 146.933 228.208,146.960 203.168,149.213 200.042 C 149.628 199.466,150.235 197.416,150.569 195.458 C 151.028 192.771,151.406 191.685,152.133 190.958 C 152.660 190.431,153.411 189.144,153.801 188.100 C 154.191 187.055,155.025 185.684,155.655 185.053 C 156.285 184.421,156.800 183.701,156.800 183.453 C 156.801 182.835,160.888 178.393,161.453 178.397 C 161.701 178.399,162.365 177.796,162.928 177.059 C 163.491 176.321,164.496 175.491,165.162 175.216 C 165.828 174.940,166.475 174.395,166.598 174.006 C 166.734 173.577,167.568 173.095,168.711 172.784 C 169.750 172.502,171.770 171.668,173.200 170.931 C 176.974 168.987,184.858 168.404,196.400 169.216 M55.509 170.100 C 55.733 170.375,56.108 171.300,56.342 172.157 C 56.575 173.013,57.109 174.093,57.527 174.557 C 57.993 175.074,58.488 176.614,58.807 178.537 C 59.146 180.586,59.675 182.181,60.334 183.137 C 60.922 183.990,61.646 186.006,62.070 187.973 C 62.470 189.829,63.136 191.718,63.550 192.173 C 64.389 193.096,65.001 194.906,65.385 197.600 C 65.526 198.590,66.092 200.169,66.642 201.108 C 67.193 202.047,67.881 204.063,68.171 205.587 C 68.461 207.110,69.182 209.182,69.774 210.191 C 70.365 211.199,71.114 213.324,71.439 214.912 C 71.764 216.501,72.406 218.318,72.865 218.951 C 73.759 220.185,74.787 223.536,74.795 225.244 C 74.798 225.818,75.255 226.959,75.812 227.779 C 76.372 228.605,77.181 230.818,77.623 232.735 C 78.063 234.641,78.790 236.704,79.238 237.321 C 79.687 237.937,80.320 239.467,80.645 240.721 C 81.749 244.986,83.493 245.370,85.163 241.716 C 85.645 240.662,86.385 239.253,86.807 238.584 C 87.230 237.915,87.849 236.070,88.182 234.483 C 88.516 232.897,89.253 230.898,89.821 230.040 C 90.458 229.077,91.051 227.341,91.370 225.500 C 91.665 223.803,92.252 222.020,92.734 221.360 C 93.199 220.722,93.931 218.717,94.359 216.905 C 94.788 215.093,95.509 213.090,95.961 212.454 C 96.414 211.819,97.156 209.704,97.610 207.756 C 98.065 205.807,98.766 203.850,99.168 203.406 C 99.571 202.963,100.127 201.365,100.404 199.856 C 100.681 198.346,101.426 196.139,102.060 194.951 C 102.694 193.763,103.485 191.496,103.818 189.914 C 104.151 188.332,104.665 186.759,104.960 186.419 C 105.911 185.324,106.387 184.113,106.984 181.276 C 107.305 179.749,107.965 177.827,108.451 177.004 C 108.936 176.181,109.625 174.223,109.981 172.654 L 110.629 169.800 117.407 169.690 C 121.838 169.618,124.569 169.739,125.293 170.038 L 126.400 170.497 126.400 214.197 L 126.400 257.897 124.884 259.605 L 123.368 261.314 120.194 260.957 L 117.019 260.600 116.681 258.800 C 116.495 257.810,116.426 241.075,116.528 221.612 C 116.722 184.551,116.715 184.400,114.906 184.400 C 113.454 184.400,112.974 185.223,112.008 189.365 C 111.577 191.216,110.784 193.377,110.247 194.168 C 109.651 195.047,109.084 196.734,108.791 198.503 C 108.528 200.097,108.085 201.670,107.807 202.000 C 106.871 203.113,106.403 204.335,105.785 207.274 C 105.446 208.883,104.736 210.830,104.206 211.600 C 103.676 212.370,102.967 214.336,102.629 215.968 C 102.291 217.600,101.587 219.580,101.065 220.368 C 100.526 221.180,99.907 223.012,99.635 224.600 C 99.353 226.242,98.758 227.979,98.195 228.800 C 97.667 229.570,96.859 231.817,96.399 233.794 C 95.921 235.849,95.228 237.744,94.780 238.221 C 94.328 238.702,93.682 240.482,93.253 242.427 C 92.844 244.282,92.135 246.430,91.678 247.200 C 91.222 247.970,90.550 249.950,90.186 251.600 C 89.822 253.250,89.120 255.230,88.627 256.000 C 88.134 256.770,87.296 258.255,86.766 259.300 L 85.801 261.200 82.765 261.200 C 79.867 261.200,79.706 261.151,79.245 260.138 C 78.979 259.555,78.159 258.160,77.422 257.038 C 76.686 255.917,75.960 254.190,75.808 253.200 C 75.379 250.396,74.714 248.286,73.935 247.259 C 73.542 246.742,73.112 245.662,72.978 244.859 C 72.510 242.055,71.541 239.088,70.737 238.001 C 70.292 237.398,69.678 235.599,69.374 234.004 C 69.070 232.408,68.432 230.449,67.956 229.651 C 67.480 228.853,66.755 226.670,66.343 224.800 C 65.932 222.930,65.270 220.950,64.871 220.400 C 63.933 219.106,63.710 218.479,63.026 215.194 C 62.713 213.696,61.989 211.762,61.417 210.897 C 60.806 209.974,60.209 208.289,59.972 206.820 C 59.750 205.442,59.060 203.300,58.438 202.058 C 57.816 200.816,57.106 198.645,56.862 197.233 C 56.603 195.742,55.994 194.057,55.408 193.212 C 54.800 192.334,54.104 190.364,53.654 188.247 C 52.840 184.417,52.035 183.129,50.902 183.845 C 49.711 184.596,49.681 185.507,49.640 221.923 C 49.612 246.815,49.464 258.185,49.153 259.423 L 48.705 261.200 45.399 261.200 L 42.092 261.200 41.446 259.225 C 40.602 256.645,40.443 170.917,41.280 170.080 C 41.972 169.388,54.944 169.406,55.509 170.100 M244.600 191.247 C 243.280 191.439,241.120 192.040,239.800 192.584 C 238.480 193.128,236.590 193.777,235.601 194.028 C 232.617 194.785,229.742 197.941,230.574 199.549 C 230.918 200.215,231.201 200.994,231.201 201.280 C 231.202 201.566,231.544 202.360,231.961 203.044 L 232.720 204.287 236.325 203.398 C 238.308 202.908,240.531 202.139,241.265 201.689 C 245.155 199.301,256.112 199.416,258.716 201.873 C 259.141 202.273,260.106 203.073,260.862 203.652 C 262.062 204.570,262.371 205.204,263.298 208.652 C 265.945 218.490,265.346 219.294,255.000 219.786 C 250.827 219.985,243.495 221.103,237.600 222.440 C 236.610 222.665,235.170 223.268,234.400 223.781 C 233.630 224.294,232.370 224.917,231.600 225.165 C 229.632 225.799,226.167 229.278,224.844 231.947 C 224.230 233.186,223.384 234.830,222.964 235.600 C 221.593 238.113,221.876 247.915,223.402 250.800 C 224.042 252.010,224.779 253.590,225.040 254.312 C 225.582 255.814,228.567 258.602,230.967 259.848 C 231.865 260.314,233.337 261.084,234.238 261.559 C 240.036 264.615,254.587 262.329,259.222 257.635 C 259.784 257.066,260.684 256.212,261.222 255.739 C 261.760 255.265,262.634 254.399,263.165 253.815 C 264.478 252.369,265.409 253.279,266.234 256.816 C 267.104 260.543,268.761 262.000,272.131 262.000 C 275.192 262.000,275.000 263.956,275.000 232.838 L 275.000 205.000 273.151 201.517 C 271.231 197.901,268.005 194.421,266.000 193.804 C 265.450 193.635,264.190 193.090,263.200 192.593 C 259.921 190.949,251.060 190.307,244.600 191.247 M347.800 191.241 C 346.480 191.429,344.493 192.024,343.384 192.563 C 342.275 193.102,340.835 193.673,340.184 193.831 C 338.695 194.194,334.208 197.519,332.532 199.500 C 329.287 203.339,328.400 204.511,328.400 204.964 C 328.400 205.233,327.698 206.834,326.840 208.522 C 325.185 211.776,325.182 211.794,324.365 221.800 C 323.697 229.972,324.675 241.098,326.368 244.600 C 327.006 245.920,327.787 247.630,328.103 248.400 C 329.777 252.476,335.378 258.066,339.198 259.472 C 340.189 259.837,341.298 260.388,341.662 260.696 C 345.383 263.842,362.545 263.468,368.058 260.121 L 371.222 258.200 371.111 254.600 L 371.000 251.000 369.456 250.619 C 367.881 250.230,367.665 250.283,362.600 252.308 C 361.387 252.793,359.499 252.954,354.800 252.974 L 348.600 253.000 346.200 251.578 C 344.880 250.796,343.308 249.912,342.707 249.614 C 342.105 249.316,341.507 248.737,341.377 248.328 C 341.247 247.919,340.487 246.733,339.688 245.692 C 338.685 244.387,337.945 242.745,337.303 240.400 C 336.791 238.530,336.101 236.010,335.769 234.800 C 334.958 231.836,334.956 222.225,335.767 219.200 C 336.091 217.990,336.742 215.476,337.213 213.613 C 337.767 211.423,338.446 209.787,339.135 208.984 C 339.721 208.301,340.763 206.926,341.451 205.929 C 344.525 201.474,354.187 199.026,360.200 201.179 C 366.894 203.575,367.980 203.586,369.158 201.272 C 369.570 200.462,370.293 199.080,370.766 198.200 C 372.352 195.247,371.990 194.710,367.000 192.622 C 363.061 190.974,354.151 190.333,347.800 191.241 M260.800 192.650 C 261.570 193.118,263.389 193.889,264.842 194.364 C 266.773 194.995,267.602 195.487,267.924 196.194 C 268.167 196.726,268.885 197.430,269.520 197.759 C 270.308 198.166,270.900 198.966,271.384 200.278 C 271.774 201.335,272.539 202.864,273.084 203.675 C 274.590 205.919,274.848 211.114,274.716 236.600 C 274.586 261.683,274.638 261.208,272.036 261.190 C 269.808 261.174,267.159 258.498,266.739 255.838 C 266.147 252.092,263.666 250.957,262.012 253.676 C 261.610 254.338,260.718 255.222,260.030 255.640 C 259.343 256.058,258.625 256.807,258.436 257.305 C 258.201 257.923,257.538 258.358,256.342 258.678 C 255.379 258.935,253.903 259.613,253.061 260.185 C 249.539 262.575,237.492 262.799,234.312 260.533 C 233.370 259.862,231.911 259.090,231.069 258.816 C 228.833 258.088,226.084 255.159,225.293 252.663 C 224.934 251.528,224.271 250.090,223.820 249.467 C 222.585 247.760,222.586 237.841,223.820 236.134 C 224.272 235.510,224.977 234.106,225.387 233.013 C 226.437 230.214,230.224 226.566,233.351 225.341 C 234.657 224.829,236.012 224.162,236.363 223.859 C 237.350 223.005,241.266 222.434,257.347 220.798 C 262.401 220.284,264.615 219.526,265.365 218.050 C 266.071 216.663,265.609 210.484,264.695 209.089 C 264.343 208.552,263.758 207.092,263.396 205.844 C 262.929 204.238,262.425 203.384,261.668 202.916 C 261.081 202.553,260.005 201.703,259.277 201.028 L 257.954 199.800 250.043 199.800 L 242.131 199.800 240.565 200.876 C 238.138 202.544,233.051 203.566,232.569 202.483 C 230.521 197.883,232.181 195.494,238.345 194.170 C 239.745 193.869,241.138 193.417,241.441 193.166 C 243.672 191.314,257.974 190.934,260.800 192.650 M363.659 192.471 C 364.222 192.839,366.014 193.539,367.641 194.026 C 369.268 194.513,370.733 194.986,370.896 195.077 C 371.059 195.168,370.531 196.538,369.722 198.121 C 368.914 199.704,368.126 201.270,367.970 201.600 C 367.540 202.513,365.067 202.190,362.938 200.942 C 360.414 199.463,349.391 199.220,347.427 200.600 C 345.818 201.730,345.613 201.846,343.600 202.766 C 342.516 203.261,341.402 204.182,340.800 205.082 C 340.250 205.903,339.287 207.165,338.661 207.885 C 337.962 208.688,337.252 210.240,336.825 211.898 C 336.441 213.384,335.824 215.186,335.453 215.902 C 333.456 219.751,333.543 234.068,335.589 238.480 C 336.027 239.426,336.670 241.229,337.017 242.486 C 338.137 246.540,341.961 250.682,346.800 253.079 C 349.855 254.593,363.186 253.948,365.824 252.158 C 368.742 250.178,369.983 251.397,369.996 256.258 C 370.000 257.855,369.923 257.956,367.900 259.003 C 366.745 259.601,365.530 260.319,365.200 260.600 C 362.905 262.551,346.124 262.522,343.959 260.563 C 343.576 260.216,342.222 259.611,340.949 259.217 C 337.749 258.227,333.614 255.120,331.987 252.482 C 331.269 251.317,330.361 250.193,329.969 249.983 C 329.575 249.772,328.964 248.577,328.599 247.301 C 328.237 246.036,327.500 244.354,326.961 243.566 C 324.283 239.642,324.604 213.883,327.382 209.788 C 327.897 209.030,328.537 207.498,328.804 206.385 C 329.123 205.054,329.612 204.149,330.229 203.744 C 330.746 203.406,331.270 202.808,331.395 202.417 C 331.735 201.345,334.778 198.273,336.700 197.061 C 337.635 196.472,338.400 195.817,338.400 195.606 C 338.400 195.395,339.435 194.937,340.700 194.588 C 341.965 194.240,344.170 193.417,345.600 192.761 L 348.200 191.567 355.418 191.684 C 361.362 191.779,362.817 191.918,363.659 192.471 M248.543 227.592 C 245.643 227.807,244.045 228.130,242.943 228.723 C 242.094 229.179,240.590 229.950,239.600 230.435 C 236.734 231.840,234.161 234.756,233.639 237.192 C 231.602 246.688,234.634 252.911,241.830 254.006 C 247.218 254.826,253.852 253.903,255.879 252.052 C 256.548 251.440,257.659 250.707,258.348 250.422 C 259.037 250.136,259.600 249.731,259.600 249.520 C 259.600 249.310,260.311 248.433,261.180 247.573 C 262.500 246.266,263.588 244.062,263.598 242.675 C 263.599 242.497,264.033 241.417,264.562 240.275 C 266.130 236.891,266.423 230.137,265.070 228.562 L 264.071 227.400 258.336 227.345 C 255.181 227.315,250.774 227.426,248.543 227.592 M263.545 228.823 L 264.891 229.644 264.623 233.122 C 264.303 237.268,262.639 244.252,261.682 245.463 C 261.307 245.937,260.370 247.145,259.600 248.147 C 258.830 249.149,257.972 249.976,257.694 249.984 C 257.415 249.993,256.200 250.656,254.993 251.457 C 248.978 255.451,237.688 253.798,234.635 248.476 C 234.035 247.430,233.845 240.122,234.358 237.863 C 235.329 233.592,241.805 229.179,248.199 228.431 C 254.251 227.724,262.069 227.923,263.545 228.823 " stroke="none" fill="#b4b4b4" fill-rule="evenodd"></path><path id="path4" d="M299.400 162.653 C 302.265 162.950,305.511 162.976,305.339 162.700 C 305.237 162.535,303.588 162.429,301.676 162.464 C 299.764 162.499,298.740 162.584,299.400 162.653 M296.489 163.423 L 295.600 164.045 295.602 211.123 C 295.604 242.510,295.743 258.700,296.021 259.699 C 296.606 261.806,297.968 262.418,301.880 262.331 L 305.000 262.262 301.600 262.031 C 295.402 261.610,296.000 267.031,296.000 211.305 L 296.000 164.185 297.100 163.503 C 297.705 163.128,298.015 162.816,297.789 162.811 C 297.563 162.805,296.978 163.080,296.489 163.423 M306.352 164.487 C 306.537 165.598,306.593 165.655,306.719 164.854 C 306.801 164.333,306.703 163.743,306.501 163.541 C 306.279 163.319,306.221 163.693,306.352 164.487 M183.600 167.560 C 182.610 167.692,184.860 167.802,188.600 167.805 C 192.759 167.809,194.546 167.708,193.200 167.545 C 190.548 167.225,186.065 167.232,183.600 167.560 M179.700 168.276 C 180.085 168.376,180.715 168.376,181.100 168.276 C 181.485 168.175,181.170 168.093,180.400 168.093 C 179.630 168.093,179.315 168.175,179.700 168.276 M196.100 168.276 C 196.485 168.376,197.115 168.376,197.500 168.276 C 197.885 168.175,197.570 168.093,196.800 168.093 C 196.030 168.093,195.715 168.175,196.100 168.276 M48.687 168.781 C 56.551 169.031,56.096 168.827,57.822 172.884 C 58.450 174.361,59.034 175.500,59.118 175.415 C 59.450 175.084,57.030 170.149,56.120 169.300 C 55.191 168.434,54.907 168.403,48.478 168.481 L 41.800 168.563 48.687 168.781 M115.500 168.697 C 117.095 168.773,119.705 168.773,121.300 168.697 C 122.895 168.621,121.590 168.559,118.400 168.559 C 115.210 168.559,113.905 168.621,115.500 168.697 M199.300 168.676 C 199.685 168.776,200.315 168.776,200.700 168.676 C 201.085 168.575,200.770 168.493,200.000 168.493 C 199.230 168.493,198.915 168.575,199.300 168.676 M40.434 169.500 L 39.579 170.200 39.689 215.335 L 39.800 260.469 40.922 261.435 C 43.077 263.288,50.000 262.636,50.000 260.580 C 50.000 260.383,49.720 260.622,49.377 261.111 C 48.624 262.187,42.793 262.424,41.485 261.432 C 40.052 260.346,40.000 258.678,40.000 214.151 L 40.000 170.098 40.900 169.470 C 41.395 169.124,41.685 168.833,41.544 168.821 C 41.404 168.809,40.904 169.115,40.434 169.500 M126.000 169.501 L 127.400 170.200 127.502 213.806 C 127.615 262.125,127.692 260.534,125.192 261.437 C 121.606 262.731,116.456 262.022,116.354 260.220 C 116.313 259.504,116.283 259.492,116.119 260.130 C 115.578 262.222,120.888 263.217,125.375 261.863 C 128.079 261.048,127.984 262.791,127.992 213.929 L 128.000 170.458 126.946 169.629 C 126.366 169.173,125.601 168.800,125.246 168.801 C 124.891 168.801,125.230 169.116,126.000 169.501 M171.691 170.081 C 170.336 170.785,169.304 171.437,169.397 171.530 C 169.490 171.623,170.249 171.290,171.083 170.790 C 171.917 170.289,173.320 169.649,174.200 169.367 C 175.125 169.070,175.453 168.842,174.977 168.827 C 174.524 168.812,173.046 169.376,171.691 170.081 M203.661 169.355 C 204.684 169.631,205.944 170.127,206.461 170.458 C 207.589 171.181,208.800 171.653,208.800 171.370 C 208.800 170.941,203.752 168.802,202.800 168.827 C 202.139 168.845,202.430 169.024,203.661 169.355 M210.315 172.212 C 212.166 173.060,212.247 173.671,210.837 176.135 C 210.157 177.324,209.600 178.536,209.600 178.828 C 209.600 179.120,210.272 178.066,211.094 176.485 C 212.742 173.314,212.539 172.449,210.000 171.846 C 209.291 171.678,209.383 171.784,210.315 172.212 M108.629 173.029 C 108.481 173.615,108.438 174.172,108.532 174.266 C 108.627 174.360,108.824 173.958,108.971 173.371 C 109.119 172.785,109.162 172.228,109.068 172.134 C 108.973 172.040,108.776 172.442,108.629 173.029 M165.578 173.500 L 164.200 175.000 165.796 173.600 C 166.673 172.830,167.468 172.155,167.562 172.100 C 167.656 172.045,167.559 172.000,167.345 172.000 C 167.132 172.000,166.337 172.675,165.578 173.500 M107.381 176.037 C 107.029 176.718,106.812 177.345,106.899 177.432 C 106.986 177.519,107.356 176.962,107.722 176.195 C 108.544 174.470,108.259 174.338,107.381 176.037 M160.800 177.271 C 158.769 179.173,158.638 179.354,160.200 178.098 C 162.066 176.596,163.930 174.778,163.562 174.817 C 163.473 174.827,162.230 175.931,160.800 177.271 M183.305 178.287 C 183.914 178.379,184.814 178.377,185.305 178.282 C 185.797 178.187,185.300 178.111,184.200 178.114 C 183.100 178.117,182.697 178.195,183.305 178.287 M191.300 178.287 C 191.905 178.378,192.895 178.378,193.500 178.287 C 194.105 178.195,193.610 178.120,192.400 178.120 C 191.190 178.120,190.695 178.195,191.300 178.287 M176.200 180.207 C 174.880 180.968,173.980 181.590,174.200 181.590 C 174.420 181.590,175.680 180.968,177.000 180.207 C 178.320 179.447,179.220 178.824,179.000 178.824 C 178.780 178.824,177.520 179.447,176.200 180.207 M199.807 179.995 C 201.131 180.648,202.841 181.280,203.607 181.399 C 204.702 181.568,204.590 181.481,203.080 180.989 C 202.025 180.646,200.585 180.013,199.880 179.584 C 199.176 179.154,198.330 178.804,198.000 178.805 C 197.670 178.806,198.483 179.342,199.807 179.995 M60.000 179.859 C 60.000 180.112,60.540 181.345,61.200 182.600 C 61.860 183.855,62.393 184.638,62.384 184.341 C 62.364 183.669,60.000 179.225,60.000 179.859 M208.811 180.580 C 208.437 181.278,207.873 181.603,206.844 181.712 L 205.400 181.866 206.854 181.933 C 208.184 181.994,210.132 180.398,209.499 179.766 C 209.409 179.675,209.099 180.042,208.811 180.580 M156.784 181.223 C 155.590 182.900,155.947 182.973,157.339 181.338 C 157.966 180.602,158.293 180.000,158.067 180.000 C 157.840 180.000,157.263 180.550,156.784 181.223 M104.462 184.427 C 103.726 185.936,103.217 187.402,103.330 187.685 C 103.470 188.034,103.547 187.992,103.568 187.556 C 103.586 187.202,104.150 185.882,104.822 184.623 C 105.494 183.363,105.989 182.186,105.922 182.007 C 105.855 181.828,105.198 182.917,104.462 184.427 M172.584 182.026 C 172.439 182.261,171.629 182.954,170.784 183.565 C 169.143 184.754,165.600 188.698,165.600 189.336 C 165.600 189.547,166.127 188.993,166.771 188.104 C 167.414 187.215,169.219 185.388,170.781 184.044 C 172.343 182.700,173.447 181.600,173.234 181.600 C 173.021 181.600,172.729 181.792,172.584 182.026 M154.575 184.500 L 153.400 185.800 154.700 184.625 C 155.912 183.530,156.184 183.200,155.875 183.200 C 155.806 183.200,155.221 183.785,154.575 184.500 M50.737 186.700 C 50.493 187.305,50.238 188.790,50.170 190.000 L 50.047 192.200 50.378 190.000 C 50.819 187.062,52.000 184.782,52.000 186.867 C 52.000 187.123,52.094 187.239,52.209 187.124 C 52.512 186.821,51.981 185.600,51.547 185.600 C 51.345 185.600,50.981 186.095,50.737 186.700 M113.677 186.991 C 113.026 188.420,113.100 188.830,113.788 187.600 L 114.347 186.600 114.973 188.087 C 115.523 189.393,115.612 193.841,115.698 224.487 L 115.795 259.400 115.914 225.200 C 116.038 189.451,116.008 188.374,114.862 186.872 L 114.154 185.944 113.677 186.991 M153.038 186.682 C 152.908 187.090,152.172 188.402,151.401 189.598 C 150.630 190.794,150.000 192.042,150.000 192.371 C 150.000 192.700,150.332 192.346,150.738 191.585 C 151.145 190.823,151.975 189.336,152.584 188.279 C 153.193 187.223,153.597 186.264,153.482 186.149 C 153.367 186.034,153.167 186.274,153.038 186.682 M62.828 187.621 C 62.793 188.403,64.819 192.515,65.100 192.233 C 65.215 192.119,64.999 191.552,64.620 190.975 C 64.242 190.397,63.690 189.266,63.394 188.462 C 63.098 187.658,62.844 187.280,62.828 187.621 M101.300 193.149 C 100.585 194.615,100.012 196.172,100.027 196.608 C 100.041 197.043,100.284 196.680,100.567 195.800 C 100.849 194.920,101.483 193.528,101.976 192.707 C 102.468 191.885,102.810 191.049,102.736 190.848 C 102.661 190.647,102.015 191.682,101.300 193.149 M251.105 190.683 C 251.602 190.779,252.322 190.775,252.705 190.675 C 253.087 190.575,252.680 190.496,251.800 190.501 C 250.920 190.505,250.607 190.587,251.105 190.683 M354.100 190.676 C 354.485 190.776,355.115 190.776,355.500 190.676 C 355.885 190.575,355.570 190.493,354.800 190.493 C 354.030 190.493,353.715 190.575,354.100 190.676 M244.705 191.083 C 245.202 191.179,245.922 191.175,246.305 191.075 C 246.687 190.975,246.280 190.896,245.400 190.901 C 244.520 190.905,244.207 190.987,244.705 191.083 M257.300 191.076 C 257.685 191.176,258.315 191.176,258.700 191.076 C 259.085 190.975,258.770 190.893,258.000 190.893 C 257.230 190.893,256.915 190.975,257.300 191.076 M347.905 191.083 C 348.402 191.179,349.122 191.175,349.505 191.075 C 349.887 190.975,349.480 190.896,348.600 190.901 C 347.720 190.905,347.407 190.987,347.905 191.083 M359.900 191.082 C 360.395 191.178,361.205 191.178,361.700 191.082 C 362.195 190.987,361.790 190.909,360.800 190.909 C 359.810 190.909,359.405 190.987,359.900 191.082 M239.200 192.400 C 237.770 193.048,236.810 193.583,237.067 193.589 C 237.324 193.595,238.404 193.217,239.467 192.749 C 240.530 192.281,241.940 191.759,242.600 191.590 C 243.699 191.308,243.716 191.279,242.800 191.252 C 242.250 191.236,240.630 191.752,239.200 192.400 M163.050 193.191 C 162.693 194.085,162.408 195.038,162.419 195.308 C 162.429 195.579,162.785 194.911,163.209 193.824 C 163.633 192.737,163.918 191.784,163.840 191.707 C 163.763 191.630,163.408 192.298,163.050 193.191 M263.200 192.567 C 264.190 193.079,265.450 193.620,266.000 193.770 C 266.550 193.920,265.920 193.497,264.600 192.831 C 263.280 192.164,262.020 191.622,261.800 191.628 C 261.580 191.633,262.210 192.056,263.200 192.567 M343.904 191.830 C 343.777 191.956,342.622 192.492,341.337 193.020 C 338.716 194.098,339.029 194.373,341.692 193.332 C 343.570 192.598,345.220 191.600,344.556 191.600 C 344.323 191.600,344.030 191.703,343.904 191.830 M367.200 192.649 C 371.102 194.391,371.396 194.593,371.513 195.613 C 371.575 196.156,371.239 197.320,370.766 198.200 C 370.293 199.080,369.571 200.459,369.161 201.264 C 368.728 202.116,367.953 202.897,367.308 203.132 C 366.699 203.355,366.437 203.551,366.726 203.568 C 367.731 203.629,368.797 202.768,369.550 201.288 C 369.966 200.469,370.688 199.087,371.153 198.215 C 372.685 195.349,372.110 194.134,368.667 192.961 C 367.641 192.611,366.700 192.162,366.577 191.963 C 366.454 191.763,366.048 191.615,365.676 191.633 C 365.304 191.652,365.990 192.109,367.200 192.649 M53.619 192.464 C 53.608 192.609,54.140 193.869,54.800 195.264 C 55.460 196.659,55.991 197.530,55.981 197.200 C 55.962 196.597,53.654 191.970,53.619 192.464 M50.191 226.000 C 50.191 244.370,50.240 251.885,50.300 242.700 C 50.360 233.515,50.360 218.485,50.300 209.300 C 50.240 200.115,50.191 207.630,50.191 226.000 M65.268 193.200 C 65.288 194.239,65.918 195.946,65.932 195.000 C 65.938 194.560,65.789 193.840,65.600 193.400 C 65.389 192.910,65.261 192.832,65.268 193.200 M110.627 195.782 C 110.019 196.983,109.615 198.198,109.729 198.483 C 109.872 198.837,109.947 198.799,109.968 198.360 C 109.986 198.007,110.457 196.859,111.016 195.809 C 111.574 194.758,111.964 193.831,111.882 193.748 C 111.799 193.666,111.234 194.581,110.627 195.782 M232.997 194.737 C 232.335 195.140,231.285 196.137,230.664 196.952 L 229.533 198.434 230.366 200.117 C 230.824 201.043,231.200 201.566,231.200 201.280 C 231.200 200.994,230.929 200.236,230.598 199.596 C 229.921 198.286,231.226 196.305,233.800 194.735 C 234.460 194.332,234.820 194.003,234.600 194.003 C 234.380 194.003,233.659 194.333,232.997 194.737 M268.225 195.237 C 268.871 195.917,269.940 196.851,270.600 197.313 C 271.260 197.775,270.833 197.219,269.652 196.077 C 267.318 193.821,266.324 193.236,268.225 195.237 M337.287 195.100 C 336.330 196.035,336.314 196.081,337.181 195.406 C 338.888 194.076,338.969 194.000,338.686 194.000 C 338.536 194.000,337.906 194.495,337.287 195.100 M66.068 196.600 C 66.062 197.040,66.211 197.760,66.400 198.200 C 66.838 199.219,66.838 198.168,66.400 196.800 C 66.143 195.996,66.077 195.957,66.068 196.600 M161.095 198.546 C 159.598 201.871,159.696 202.444,161.213 199.238 C 161.880 197.828,162.374 196.544,162.313 196.384 C 162.251 196.223,161.703 197.197,161.095 198.546 M148.457 198.257 C 147.966 199.269,147.630 200.164,147.712 200.246 C 147.794 200.327,148.271 199.574,148.771 198.571 C 149.272 197.569,149.607 196.674,149.516 196.583 C 149.425 196.492,148.949 197.245,148.457 198.257 M334.122 197.429 L 333.000 198.458 334.300 197.554 C 335.015 197.057,335.600 196.593,335.600 196.525 C 335.600 196.209,335.158 196.480,334.122 197.429 M66.800 199.305 C 66.800 199.456,67.174 200.170,67.631 200.890 C 68.332 201.996,68.419 202.044,68.188 201.200 C 67.929 200.255,66.800 198.713,66.800 199.305 M272.012 199.422 C 272.019 199.630,272.661 200.880,273.439 202.200 C 274.217 203.520,274.731 204.169,274.582 203.643 C 274.280 202.580,271.993 198.823,272.012 199.422 M56.437 200.400 C 56.409 201.266,57.967 204.566,58.264 204.269 C 58.402 204.132,58.308 203.771,58.056 203.468 C 57.804 203.164,57.341 202.215,57.027 201.358 C 56.713 200.501,56.448 200.070,56.437 200.400 M98.462 201.662 C 97.953 202.546,97.608 203.342,97.697 203.430 C 97.785 203.519,98.268 202.861,98.769 201.969 C 99.271 201.077,99.615 200.281,99.534 200.201 C 99.453 200.120,98.971 200.777,98.462 201.662 M248.500 200.296 C 249.765 200.375,251.835 200.375,253.100 200.296 C 254.365 200.216,253.330 200.151,250.800 200.151 C 248.270 200.151,247.235 200.216,248.500 200.296 M354.800 200.812 C 357.830 201.011,359.780 201.380,361.800 202.136 C 363.340 202.712,364.960 203.171,365.400 203.156 C 365.840 203.141,365.390 202.884,364.400 202.585 C 363.410 202.286,361.610 201.678,360.400 201.234 C 358.708 200.613,357.322 200.439,354.400 200.481 L 350.600 200.536 354.800 200.812 M241.000 201.843 C 239.942 202.516,239.730 202.766,240.372 202.580 C 241.707 202.196,243.940 200.800,243.200 200.814 C 242.870 200.820,241.880 201.283,241.000 201.843 M257.995 201.857 C 258.686 202.439,259.810 203.294,260.493 203.757 C 261.176 204.221,261.976 205.230,262.271 206.000 C 262.767 207.295,262.791 207.310,262.589 206.200 C 262.469 205.540,261.859 204.550,261.233 204.000 C 258.839 201.898,257.415 200.800,257.083 200.800 C 256.894 200.800,257.304 201.276,257.995 201.857 M346.052 202.484 C 343.368 203.790,342.456 204.472,341.452 205.927 C 340.763 206.925,339.705 208.319,339.100 209.024 C 338.495 209.729,338.000 210.442,338.000 210.608 C 338.000 210.774,338.675 210.048,339.500 208.995 C 342.385 205.310,344.074 203.638,345.332 203.220 C 347.094 202.635,350.660 200.794,349.968 200.827 C 349.656 200.842,347.893 201.588,346.052 202.484 M329.505 202.700 C 328.931 203.305,328.097 204.765,327.652 205.945 C 327.207 207.125,326.577 208.385,326.253 208.745 C 325.928 209.105,325.539 209.940,325.388 210.600 C 325.237 211.260,325.853 210.372,326.757 208.626 C 327.661 206.881,328.400 205.222,328.400 204.940 C 328.400 204.658,328.959 203.792,329.641 203.014 C 331.107 201.344,331.009 201.117,329.505 202.700 M231.201 202.278 C 231.197 203.726,232.956 204.710,234.600 204.179 C 235.480 203.894,235.897 203.648,235.526 203.631 C 235.155 203.614,234.386 203.777,233.816 203.994 C 232.891 204.345,232.696 204.249,231.992 203.094 C 231.558 202.382,231.202 202.015,231.201 202.278 M146.909 204.800 C 146.909 205.790,146.987 206.195,147.082 205.700 C 147.178 205.205,147.178 204.395,147.082 203.900 C 146.987 203.405,146.909 203.810,146.909 204.800 M107.391 204.960 C 107.050 205.775,106.685 207.018,106.578 207.721 C 106.459 208.516,106.630 208.242,107.031 207.000 C 107.386 205.900,107.865 204.771,108.095 204.490 C 108.326 204.210,108.401 203.867,108.262 203.729 C 108.124 203.590,107.732 204.144,107.391 204.960 M159.324 207.400 C 159.326 208.720,159.401 209.212,159.490 208.493 C 159.579 207.774,159.577 206.694,159.486 206.093 C 159.395 205.492,159.322 206.080,159.324 207.400 M69.203 206.400 C 69.203 206.730,69.591 207.630,70.066 208.400 C 70.540 209.170,71.158 210.520,71.438 211.400 C 71.730 212.320,71.958 212.650,71.973 212.177 C 71.988 211.724,71.371 210.104,70.601 208.577 C 69.832 207.050,69.203 206.070,69.203 206.400 M274.893 207.200 C 274.893 207.970,274.975 208.285,275.076 207.900 C 275.176 207.515,275.176 206.885,275.076 206.500 C 274.975 206.115,274.893 206.430,274.893 207.200 M262.851 207.800 C 262.839 208.020,263.089 209.280,263.408 210.600 C 265.184 217.956,264.424 218.824,255.800 219.278 C 250.538 219.555,241.287 221.020,241.767 221.501 C 241.859 221.593,243.778 221.292,246.031 220.832 C 248.284 220.373,252.484 219.891,255.364 219.762 C 263.650 219.392,264.677 218.807,264.460 214.582 C 264.352 212.488,262.925 206.471,262.851 207.800 M146.560 213.800 C 146.561 217.100,146.622 218.397,146.698 216.682 C 146.773 214.967,146.772 212.267,146.697 210.682 C 146.621 209.097,146.559 210.500,146.560 213.800 M95.027 210.982 C 94.419 212.183,94.015 213.398,94.129 213.683 C 94.279 214.055,94.346 214.031,94.368 213.597 C 94.386 213.265,94.863 212.123,95.430 211.060 C 95.996 209.996,96.385 209.052,96.295 208.962 C 96.205 208.872,95.634 209.781,95.027 210.982 M106.032 209.610 C 106.014 209.946,105.466 211.296,104.813 212.610 C 104.159 213.925,103.623 215.270,103.621 215.600 C 103.619 215.930,104.256 214.800,105.038 213.089 C 105.820 211.377,106.370 209.757,106.261 209.489 C 106.133 209.173,106.052 209.216,106.032 209.610 M59.632 210.000 C 59.616 210.330,60.142 211.680,60.800 213.000 C 61.458 214.320,62.012 215.670,62.030 216.000 C 62.051 216.383,62.134 216.426,62.259 216.119 C 62.366 215.854,62.047 214.774,61.548 213.719 C 61.050 212.663,60.422 211.260,60.152 210.600 C 59.882 209.940,59.648 209.670,59.632 210.000 M275.388 234.400 C 275.388 247.710,275.438 253.155,275.500 246.500 C 275.561 239.845,275.561 228.955,275.500 222.300 C 275.438 215.645,275.388 221.090,275.388 234.400 M158.948 215.200 C 158.948 217.510,159.014 218.455,159.095 217.300 C 159.176 216.145,159.176 214.255,159.095 213.100 C 159.014 211.945,158.948 212.890,158.948 215.200 M336.226 217.317 C 335.819 218.683,335.433 221.060,335.369 222.600 L 335.253 225.400 335.564 222.800 C 335.734 221.370,336.198 219.070,336.593 217.689 C 336.988 216.308,337.234 215.101,337.139 215.006 C 337.045 214.911,336.634 215.951,336.226 217.317 M73.666 218.162 C 74.153 219.163,74.622 219.911,74.710 219.824 C 74.924 219.609,73.595 216.844,73.142 216.564 C 72.944 216.442,73.180 217.161,73.666 218.162 M324.058 220.805 C 323.542 225.341,323.525 229.160,324.006 232.400 C 324.239 233.972,324.273 233.398,324.124 230.388 C 324.010 228.071,324.131 224.142,324.394 221.657 C 324.657 219.172,324.791 217.058,324.693 216.960 C 324.595 216.862,324.309 218.592,324.058 220.805 M92.292 218.858 C 91.912 219.522,91.608 220.275,91.618 220.532 C 91.627 220.790,92.000 220.308,92.447 219.462 C 93.413 217.630,93.285 217.128,92.292 218.858 M62.959 219.651 C 63.179 220.649,65.185 224.493,65.195 223.936 C 65.198 223.791,64.644 222.531,63.964 221.136 C 63.284 219.741,62.832 219.073,62.959 219.651 M101.262 222.327 C 100.568 223.832,100.012 225.409,100.027 225.832 C 100.041 226.254,100.285 225.880,100.567 225.000 C 100.849 224.120,101.490 222.627,101.990 221.683 C 102.490 220.738,102.814 219.881,102.711 219.778 C 102.608 219.674,101.955 220.821,101.262 222.327 M159.324 223.400 C 159.326 224.720,159.401 225.212,159.490 224.493 C 159.579 223.774,159.577 222.694,159.486 222.093 C 159.395 221.492,159.322 222.080,159.324 223.400 M146.934 224.800 C 146.934 226.450,147.005 227.125,147.091 226.300 C 147.178 225.475,147.178 224.125,147.091 223.300 C 147.005 222.475,146.934 223.150,146.934 224.800 M236.181 222.383 C 235.019 222.853,232.208 224.800,232.690 224.800 C 232.911 224.800,233.578 224.417,234.173 223.950 C 234.767 223.482,236.007 222.864,236.927 222.577 C 237.847 222.289,238.240 222.053,237.800 222.052 C 237.360 222.051,236.631 222.200,236.181 222.383 M75.615 225.000 C 75.620 225.220,76.068 226.120,76.610 227.000 C 77.152 227.880,77.591 228.420,77.585 228.200 C 77.580 227.980,77.132 227.080,76.590 226.200 C 76.048 225.320,75.609 224.780,75.615 225.000 M227.947 227.354 C 225.779 229.398,224.539 231.072,224.914 231.447 C 225.012 231.545,225.316 231.125,225.590 230.513 C 225.864 229.901,227.147 228.455,228.440 227.300 C 229.734 226.145,230.659 225.207,230.496 225.215 C 230.333 225.223,229.186 226.185,227.947 227.354 M89.094 228.117 C 88.486 229.439,88.046 230.579,88.116 230.649 C 88.331 230.864,90.474 226.418,90.332 226.052 C 90.259 225.865,89.702 226.794,89.094 228.117 M65.668 226.600 C 65.662 227.040,65.811 227.760,66.000 228.200 C 66.438 229.219,66.438 228.168,66.000 226.800 C 65.743 225.996,65.677 225.957,65.668 226.600 M99.632 228.003 C 99.614 228.335,99.137 229.477,98.570 230.540 C 98.004 231.604,97.615 232.548,97.705 232.638 C 98.011 232.944,100.079 228.437,99.871 227.917 C 99.721 227.545,99.654 227.569,99.632 228.003 M252.500 228.294 C 253.545 228.376,255.255 228.376,256.300 228.294 C 257.345 228.212,256.490 228.144,254.400 228.144 C 252.310 228.144,251.455 228.212,252.500 228.294 M262.400 228.701 L 263.800 229.400 263.919 232.597 C 263.990 234.526,263.778 236.958,263.384 238.729 C 263.025 240.344,262.807 241.740,262.900 241.833 C 263.235 242.168,264.347 236.522,264.616 233.122 L 264.891 229.644 263.545 228.823 C 262.805 228.372,261.930 228.003,261.600 228.002 C 261.270 228.002,261.630 228.316,262.400 228.701 M247.300 228.676 C 247.685 228.776,248.315 228.776,248.700 228.676 C 249.085 228.575,248.770 228.493,248.000 228.493 C 247.230 228.493,246.915 228.575,247.300 228.676 M242.208 230.230 C 240.672 230.983,239.643 231.600,239.921 231.600 C 240.199 231.600,241.366 231.123,242.513 230.540 C 243.661 229.958,245.050 229.343,245.600 229.175 C 246.387 228.934,246.430 228.868,245.800 228.864 C 245.360 228.862,243.744 229.476,242.208 230.230 M335.410 231.600 C 335.499 233.250,335.928 235.680,336.364 237.000 C 337.323 239.904,337.471 239.035,336.539 235.973 C 336.175 234.778,335.736 232.630,335.563 231.200 L 335.249 228.600 335.410 231.600 M160.034 229.664 C 160.015 230.029,160.540 231.469,161.200 232.864 C 161.860 234.259,162.400 235.168,162.400 234.884 C 162.400 234.600,162.013 233.610,161.540 232.684 C 161.066 231.758,160.542 230.550,160.374 230.000 C 160.199 229.426,160.054 229.283,160.034 229.664 M66.800 230.529 C 66.800 230.837,68.370 233.769,68.384 233.487 C 68.409 232.992,67.265 230.400,67.020 230.400 C 66.899 230.400,66.800 230.458,66.800 230.529 M147.618 231.079 C 147.608 231.342,148.050 232.404,148.600 233.438 C 149.150 234.473,149.592 235.067,149.582 234.760 C 149.559 234.037,147.642 230.445,147.618 231.079 M236.927 233.629 C 235.867 234.746,234.930 235.871,234.845 236.129 C 234.760 236.388,234.760 236.506,234.845 236.391 C 234.930 236.276,235.984 235.151,237.186 233.891 C 238.389 232.631,239.256 231.600,239.114 231.600 C 238.971 231.600,237.987 232.513,236.927 233.629 M223.500 233.797 C 222.895 234.736,222.401 235.750,222.402 236.052 C 222.404 236.353,222.640 236.150,222.927 235.600 C 223.215 235.050,223.778 234.099,224.179 233.488 C 224.580 232.876,224.839 232.311,224.754 232.232 C 224.669 232.154,224.105 232.858,223.500 233.797 M78.805 233.664 C 78.802 233.809,79.356 235.069,80.036 236.464 C 80.716 237.859,81.168 238.527,81.041 237.949 C 80.821 236.951,78.815 233.107,78.805 233.664 M86.829 234.800 C 86.810 235.130,86.506 235.940,86.152 236.600 C 85.087 238.588,83.221 242.800,83.406 242.800 C 83.777 242.800,87.229 235.092,87.051 234.660 C 86.942 234.392,86.849 234.451,86.829 234.800 M324.501 236.200 C 324.505 237.080,324.587 237.393,324.683 236.895 C 324.779 236.398,324.775 235.678,324.675 235.295 C 324.575 234.913,324.496 235.320,324.501 236.200 M162.614 236.600 C 162.813 237.656,165.427 242.000,165.863 242.000 C 166.148 242.000,165.135 240.238,164.358 239.382 C 163.949 238.932,163.339 237.852,163.002 236.982 C 162.516 235.730,162.435 235.651,162.614 236.600 M222.093 238.000 C 222.093 238.770,222.175 239.085,222.276 238.700 C 222.376 238.315,222.376 237.685,222.276 237.300 C 222.175 236.915,222.093 237.230,222.093 238.000 M69.200 237.951 C 69.200 238.206,69.740 239.427,70.400 240.664 C 71.060 241.901,71.600 242.704,71.600 242.449 C 71.600 242.194,71.060 240.973,70.400 239.736 C 69.740 238.499,69.200 237.696,69.200 237.951 M95.271 239.559 C 94.046 241.738,94.189 242.165,95.443 240.072 C 96.012 239.122,96.403 238.269,96.310 238.177 C 96.218 238.085,95.750 238.706,95.271 239.559 M234.109 240.000 C 234.109 240.990,234.187 241.395,234.282 240.900 C 234.378 240.405,234.378 239.595,234.282 239.100 C 234.187 238.605,234.109 239.010,234.109 240.000 M150.400 240.707 C 150.400 240.910,150.744 241.387,151.163 241.767 C 151.583 242.147,152.148 242.991,152.417 243.642 C 152.687 244.293,152.988 244.745,153.086 244.647 C 153.184 244.549,153.043 244.048,152.773 243.534 C 152.117 242.288,150.400 240.243,150.400 240.707 M262.196 243.616 C 262.043 244.317,261.346 245.545,260.648 246.345 C 258.514 248.791,258.141 249.523,260.110 247.400 C 261.820 245.556,263.158 243.025,262.678 242.545 C 262.567 242.434,262.350 242.916,262.196 243.616 M325.379 243.400 C 325.621 244.464,327.239 247.294,327.472 247.061 C 327.522 247.011,327.010 245.897,326.334 244.585 C 325.549 243.061,325.204 242.633,325.379 243.400 M338.002 243.045 C 338.001 243.290,338.558 244.190,339.239 245.045 C 339.920 245.900,340.758 247.140,341.100 247.800 C 341.753 249.057,342.722 249.974,343.400 249.975 C 343.620 249.975,343.485 249.792,343.099 249.568 C 342.714 249.343,341.724 248.151,340.899 246.918 C 340.075 245.685,339.086 244.209,338.702 243.638 C 338.318 243.067,338.003 242.800,338.002 243.045 M234.109 244.800 C 234.109 245.790,234.187 246.195,234.282 245.700 C 234.378 245.205,234.378 244.395,234.282 243.900 C 234.187 243.405,234.109 243.810,234.109 244.800 M168.638 245.500 C 171.768 248.481,173.725 250.002,174.389 249.972 C 174.911 249.948,174.907 249.904,174.358 249.672 C 173.521 249.317,171.186 247.430,168.948 245.300 C 167.966 244.365,167.046 243.600,166.902 243.600 C 166.759 243.600,167.540 244.455,168.638 245.500 M153.200 245.555 C 153.200 245.785,153.707 246.563,154.327 247.286 C 154.946 248.009,155.839 249.239,156.310 250.021 C 157.461 251.929,161.835 256.085,163.808 257.146 C 164.684 257.617,165.850 258.294,166.400 258.650 L 167.400 259.298 166.400 258.436 C 165.850 257.961,164.739 257.222,163.931 256.794 C 161.981 255.760,157.854 251.908,156.727 250.070 C 155.376 247.866,153.200 245.081,153.200 245.555 M92.517 247.557 C 92.032 248.553,91.685 249.418,91.746 249.479 C 91.946 249.680,93.665 246.392,93.530 246.065 C 93.459 245.890,93.003 246.561,92.517 247.557 M222.101 247.400 C 222.105 248.280,222.187 248.593,222.283 248.095 C 222.379 247.598,222.375 246.878,222.275 246.495 C 222.175 246.113,222.096 246.520,222.101 247.400 M72.608 247.600 C 72.924 248.628,73.966 250.400,74.254 250.400 C 74.427 250.400,72.838 247.136,72.501 246.800 C 72.391 246.690,72.439 247.050,72.608 247.600 M328.013 249.000 C 327.995 249.627,332.627 255.645,333.877 256.619 C 335.938 258.226,338.107 259.600,338.556 259.584 C 338.800 259.575,338.492 259.293,337.872 258.956 C 334.705 257.240,330.625 253.070,328.443 249.319 C 328.213 248.924,328.019 248.780,328.013 249.000 M222.617 250.000 C 222.880 250.995,224.482 253.651,224.692 253.441 C 224.752 253.381,224.251 252.357,223.577 251.166 C 222.903 249.975,222.471 249.450,222.617 250.000 M178.400 251.210 C 180.122 251.933,182.337 252.533,183.600 252.619 L 185.800 252.768 183.513 252.400 C 182.256 252.198,180.449 251.678,179.499 251.245 C 178.549 250.813,177.238 250.344,176.586 250.205 C 175.934 250.066,176.750 250.518,178.400 251.210 M201.000 250.661 C 195.889 252.168,195.440 252.330,196.274 252.364 C 196.755 252.384,197.655 252.204,198.274 251.964 C 198.893 251.724,200.660 251.194,202.200 250.786 C 203.740 250.378,204.550 250.050,204.000 250.058 C 203.450 250.065,202.100 250.337,201.000 250.661 M237.578 251.375 C 238.337 252.159,239.237 252.789,239.578 252.775 C 239.974 252.759,239.882 252.621,239.326 252.397 C 238.846 252.204,238.266 251.696,238.037 251.270 C 237.809 250.843,237.302 250.372,236.911 250.223 C 236.503 250.067,236.788 250.559,237.578 251.375 M254.838 251.082 C 254.089 251.672,252.649 252.378,251.638 252.651 C 250.465 252.967,250.152 253.156,250.774 253.173 C 251.309 253.188,252.479 252.839,253.374 252.397 C 255.218 251.487,257.203 250.020,256.600 250.013 C 256.380 250.011,255.587 250.492,254.838 251.082 M346.000 251.400 C 347.210 252.160,348.560 252.771,349.000 252.757 C 349.615 252.737,349.558 252.658,348.749 252.413 C 348.171 252.238,347.004 251.624,346.156 251.048 C 345.308 250.471,344.431 250.004,344.207 250.009 C 343.983 250.014,344.790 250.640,346.000 251.400 M364.400 251.200 C 362.970 251.848,362.007 252.383,362.260 252.389 C 362.513 252.395,363.683 251.952,364.860 251.404 C 369.618 249.189,371.175 250.034,371.282 254.890 L 371.365 258.600 371.500 255.000 C 371.700 249.689,369.883 248.717,364.400 251.200 M209.129 254.473 C 209.238 257.496,209.142 258.210,208.529 258.936 L 207.800 259.800 208.700 259.038 C 209.613 258.265,210.117 251.569,209.300 251.060 C 209.135 250.958,209.058 252.493,209.129 254.473 M191.907 252.690 C 192.626 252.779,193.706 252.777,194.307 252.686 C 194.908 252.595,194.320 252.522,193.000 252.524 C 191.680 252.526,191.188 252.601,191.907 252.690 M263.142 253.839 C 262.624 254.410,261.760 255.265,261.222 255.739 C 260.684 256.212,259.784 257.066,259.222 257.635 C 258.176 258.695,252.837 261.747,251.400 262.107 C 250.744 262.271,250.727 262.316,251.304 262.354 C 252.813 262.453,258.621 258.827,261.413 256.041 C 264.093 253.368,264.231 253.287,265.000 253.931 C 265.794 254.595,265.794 254.593,265.038 253.700 C 264.108 252.602,264.274 252.590,263.142 253.839 M352.100 253.096 C 353.365 253.175,355.435 253.175,356.700 253.096 C 357.965 253.016,356.930 252.951,354.400 252.951 C 351.870 252.951,350.835 253.016,352.100 253.096 M244.311 253.493 C 245.251 253.578,246.691 253.577,247.511 253.491 C 248.330 253.405,247.560 253.336,245.800 253.337 C 244.040 253.339,243.370 253.409,244.311 253.493 M224.812 254.624 C 224.795 255.230,225.546 256.085,227.600 257.794 L 229.400 259.292 227.574 257.546 C 226.570 256.586,225.541 255.440,225.286 255.000 C 225.032 254.560,224.819 254.391,224.812 254.624 M75.225 255.576 C 75.188 256.419,78.388 261.565,79.229 262.015 C 80.168 262.518,85.443 262.512,86.386 262.007 C 87.063 261.645,90.415 256.043,90.388 255.319 C 90.382 255.143,89.591 256.418,88.630 258.150 C 86.499 261.997,86.515 261.986,82.770 261.994 C 80.124 261.999,79.639 261.886,78.950 261.100 C 77.819 259.812,76.107 257.169,75.645 256.000 C 75.428 255.450,75.239 255.259,75.225 255.576 M266.006 257.433 C 266.009 257.855,266.195 258.470,266.418 258.800 C 266.715 259.238,266.752 259.076,266.556 258.200 C 266.227 256.729,265.998 256.410,266.006 257.433 M306.398 259.033 C 306.396 259.455,306.125 260.318,305.795 260.951 C 305.289 261.920,305.286 262.027,305.771 261.624 C 306.403 261.099,307.019 258.885,306.638 258.505 C 306.507 258.374,306.399 258.612,306.398 259.033 M368.400 259.893 C 367.190 260.691,365.570 261.590,364.800 261.891 L 363.400 262.437 364.710 262.226 C 365.854 262.043,370.800 259.085,370.800 258.585 C 370.800 258.311,370.781 258.321,368.400 259.893 M168.200 259.600 C 168.640 259.789,169.270 259.944,169.600 259.944 C 169.978 259.944,169.904 259.817,169.400 259.600 C 168.960 259.411,168.330 259.256,168.000 259.256 C 167.622 259.256,167.696 259.383,168.200 259.600 M204.600 260.460 C 203.500 260.912,201.700 261.534,200.600 261.841 C 198.615 262.395,198.613 262.398,200.275 262.199 C 201.929 262.001,208.361 259.615,207.200 259.630 C 206.870 259.634,205.700 260.008,204.600 260.460 M232.400 261.000 C 233.595 261.770,234.849 262.389,235.187 262.375 C 235.552 262.360,235.434 262.202,234.895 261.986 C 234.397 261.786,233.321 261.167,232.502 260.611 C 231.684 260.055,230.837 259.600,230.621 259.600 C 230.404 259.600,231.205 260.230,232.400 261.000 M266.800 259.937 C 266.800 260.871,269.347 262.145,271.363 262.221 C 272.484 262.263,272.860 262.227,272.200 262.141 C 269.907 261.841,269.255 261.594,268.031 260.565 C 267.354 259.995,266.800 259.713,266.800 259.937 M172.600 261.229 C 173.920 261.872,175.360 262.386,175.800 262.372 C 176.240 262.358,175.880 262.112,175.000 261.825 C 174.120 261.538,172.860 261.011,172.200 260.654 C 171.540 260.297,170.820 260.018,170.600 260.033 C 170.380 260.049,171.280 260.587,172.600 261.229 M341.299 260.792 C 342.470 261.713,344.163 262.412,345.126 262.372 C 345.497 262.357,344.968 262.088,343.951 261.775 C 342.935 261.462,341.878 260.934,341.602 260.603 C 341.327 260.271,340.920 260.000,340.697 260.000 C 340.474 260.000,340.745 260.356,341.299 260.792 M178.505 262.687 C 179.114 262.779,180.014 262.777,180.505 262.682 C 180.997 262.587,180.500 262.511,179.400 262.514 C 178.300 262.517,177.897 262.595,178.505 262.687 M191.712 262.695 C 192.764 262.777,194.384 262.776,195.312 262.692 C 196.240 262.608,195.380 262.541,193.400 262.542 C 191.420 262.543,190.660 262.612,191.712 262.695 M236.900 262.676 C 237.285 262.776,237.915 262.776,238.300 262.676 C 238.685 262.575,238.370 262.493,237.600 262.493 C 236.830 262.493,236.515 262.575,236.900 262.676 M247.900 262.682 C 248.395 262.778,249.205 262.778,249.700 262.682 C 250.195 262.587,249.790 262.509,248.800 262.509 C 247.810 262.509,247.405 262.587,247.900 262.682 M347.100 262.682 C 347.595 262.778,348.405 262.778,348.900 262.682 C 349.395 262.587,348.990 262.509,348.000 262.509 C 347.010 262.509,346.605 262.587,347.100 262.682 M360.105 262.687 C 360.714 262.779,361.614 262.777,362.105 262.682 C 362.597 262.587,362.100 262.511,361.000 262.514 C 359.900 262.517,359.497 262.595,360.105 262.687 M184.900 263.076 C 185.285 263.176,185.915 263.176,186.300 263.076 C 186.685 262.975,186.370 262.893,185.600 262.893 C 184.830 262.893,184.515 262.975,184.900 263.076 M242.305 263.083 C 242.802 263.179,243.522 263.175,243.905 263.075 C 244.287 262.975,243.880 262.896,243.000 262.901 C 242.120 262.905,241.807 262.987,242.305 263.083 M352.707 263.090 C 353.426 263.179,354.506 263.177,355.107 263.086 C 355.708 262.995,355.120 262.922,353.800 262.924 C 352.480 262.926,351.988 263.001,352.707 263.090 " stroke="none" fill="#acacac" fill-rule="evenodd"></path></g></svg>